<svg id="artwork" xmlns="http://www.w3.org/2000/svg" viewBox="0 0 1008 1008"><defs><style>.cls-1{fill:#fff;}.cls-2{fill:#a62e22;}</style></defs><path class="cls-1" d="M928,714c5.42-21.09-36.73-4.19-17.39-39.63,10.44-19.14-6.32-27.64-13.52-30.46-26.74-10.45-6.35-24.58-25.47-30.8-10-3.26-20.28-1.7-24.74-28.88-3-18.27,28.32-8.13,23.33-32.31-7.47-36.16,17.24-37.25,15.72-52-2.5-24.21-41.33-30.75-31.69-48.55,12.46-23-11.44-40,9.45-41.69,12.55-1,8-15.56,7.39-19.44-2.54-16.25-19.28-13.48-25.64-.17-4.46,9.28-7.46,30.56-20.26,37.23a88.08,88.08,0,0,0-8.69-33.66,95.64,95.64,0,0,1,10.13,7.73c4.94-18.83-3.28-37.84-16.68-51.1,6.61-12.43,12-25.69,14.26-39.7-.64-10.54-6.06-20.36-10.16-29.84,7.14-6.46,15.81-11.07,23.6-16.53-6.47-21.71-17.3-41.58-30.57-59.75,41.81-23,43.62-71,.1-93.69A53.85,53.85,0,0,1,808.32,145c-.21-40-40.44-66-77.87-59,5.08,3.26,9.84,6.59,13.22,11.36-30.28-18.48-68.5-11.76-100.09.6,14.36,1.61,31.56,5.61,43.32,15.74-36.57-13.6-88.4-5.39-115.43,22.24a10,10,0,0,1-4.71-1.42c-23.78-17.08-23.25-2.74-38.86-5.5-10.89-2.59-19.19,1.74-27.49,8.12-5.2,4-11.68,6.25-17.22,9.85-6.33,4.12-12.22,5-17.94-.66-20.55-14.39-.37-21.94-25.47-32.3-8.4-3.25-17.1-6-25-10.2-30.2-17.61-23.2,24.89-42.66,13.9-7.9-4-10.29,7.58-13.06,13.26-15.87-3.26-22.63-33-34.51-6.34-13.44-10.7-38.35-8.62-40.91,11.44-1,5.2-5.64,2.64-8.47,11.15-1.86,5.58,8.39,8.16,12.42,12.41-6.8,2.32-18.86,1.05-18.23,11.12.26,4.92,2,7,8.19,7.86,11.65,1.66,18.47,8.13,24.94,9.91,3.66,1,12,1.85,15.21-.25,5-3.3,9.95-17.88,22.39-8.31,6.41,4.83,12.51,5.29,19.84,3.22,22.23-3.85-7.06,22.12,12.57,49.12,5.62,11.25-20,5.12-8,22.22,4.3,6.83,11.75,14.35,9.1,23-7.84,19.13,4.79,15.33,18.59,15.87-1.62,7.54-5.35,12.44-12.48,14.14-14.47,3.47-31.15,8.63-37.71,21.74-10.1,19.44-151.58,25.67-154.8,5.88-1.79-11-19.82-10-20.7-18.63-1.73-16.86-23.56-15.59-23.42-6.45.16,11.07-10.44,17.12-14.49,22.88-13.52,19.68,31.77,46.57,13.93,52.73-8.66,3-18.7,1.62-25.32-6-7.07-8.19-19.59-13.77-21-2.55-1.7,13.63,5,9.75,7.44,21.37,2.77,13,14.78,4.24,25.07,12.62,14.18,8.93-14.51,26.49,15.92,47.21,2,1.39,2.42,2.88,2.07,3.64-15.11,30.31,26.71,46.24-9.58,60.27-27.3,11.21-14.6,30.5-28.06,33.4-10.18,2.19-10.3,19.11-6.33,23.73,13.29,15.49,5.44,25.15,11.91,33.36,12.89,16.37,29,6.74,27.13,24-.88,7.83,8.13,9.1.36,27.78-3.29,8,4.38,26.87,14.91,30.41h0c5.79,19.93,16.37,30.7,41.23,31a82.33,82.33,0,0,0,44.18,29.56h0c17.53,26.3,63.7,11.51,80,17,7.19,2.41,19.5,8.69,9.93,18.24-10.87,10.85,9,17.19-4.58,24.09-16.52,8.41-18.93,26-37,30.79-12.22,3.22-22.21,10.5-25.75,23.17-2.18,7.84,4.57,16.73,12.26,14.91,12.08-2.85,20.55-18.08,30.22-24.5C332,843,354.38,825.73,382,828.78c14.77,1.64,30.16.5,45,1.72,6.86.57,4.77,5.57,3.82,7.93-2.88,11.65-22.95,25.18-7.45,35.36,8.17,7.49,6.21,22.57,7.07,32.93,2.08,18.52,29.81,28.1,35.64,6.15,6.23-23.47-18.51-13.81-5.7-38.28s21.29-7.81,35.13-21.1c25.89-24.89,22.61,11.7,62.93-6.4,22.29-10,42.64-8.71,60-14,14.49,16.23,48.11,41.92,70.52,38.58,16-1.2,48.54-13.48,61.09-29.45,46.94,10.31,90.64-9.86,117.43-49.12,22.53-5.24,29-27.42,27.29-48,8.49-3.92,15.69-7,21.39,3.71,9.95,18.68,20-2.12,19.9-11.74C935.88,724.49,924.56,727.46,928,714Z"/><path class="cls-2" d="M716.85,322.39c-25.83-11.24-61-15.81-81.58,7.33-10.71-36.8-11.51-82.75,9-116-28.78,31.37-24.37,101.31-10.8,128.55C645.73,319,687.89,312.36,716.85,322.39Z"/><path class="cls-2" d="M596.19,268.82c-12.33,33.82-19,77.73,1.47,109.45C600.38,362.58,609,354.6,609,354.6c6.39,33.24,19.19,74.94,56.74,82.72a53,53,0,0,1-2.28-5c-24.92-9.54-42.66-40.74-51.44-85.06-2.94.5-11.33,4.83-14.94,11.18C586.7,335.41,587.9,296.25,596.19,268.82Z"/><path class="cls-2" d="M702.23,123.33c-38.77-11-85.6-15.07-118.6,12.25-14.37,12.1-24,29.61-25.19,48.37,11.59-19.82,18.41-21.8,18.41-21.8-15.73,20.15-22.36,51.23-19.47,77.58,6-7.76,13.54-9.79,21-8-3.71-15.52-4.31-43.4,7-54.74-4.27,1-9.75,4.52-14,9.43-1-13.66,17.78-42.93,49.46-44.5-3-3.41-11.72-5-18.36-3.07,8.2-17.41,61.93-29.25,110.45-3.17-1.44-12.79-15-27.24-15-27.24,18.73-4.25,49.13,5.66,49.8,46.26,8.07-5.89,1.81-24.71,1.81-24.71,22,10.65,18.38,40.23,12,48.87,4.8-.94,8.79-4.57,8.52-8.78,4.36,1.28,4,15.56-4.93,24.15a41.76,41.76,0,0,0,5.29,3.44l.62.33c17.91,9.38,37.12,1.21,48.8-13.13,8.41-15.75,10.67-30.76,1.56-47.8-.81,5.46-5.33,10-8.73,12.66A22.37,22.37,0,0,1,802,158.54a47.58,47.58,0,0,0,1.2-11.56c-6.35-31.79-32.71-46.14-48.93-48.74,3.46,5.36,6.08,11.27,10.17,16.16,12.64,15.15,13.09,24.23,13.09,24.23a104.45,104.45,0,0,0-7.29-10C735,93.05,703.28,96.42,677.6,100.38,695.48,111.15,702.23,123.33,702.23,123.33Z"/><path class="cls-2" d="M688.45,430.47a55.55,55.55,0,0,0,1.73,14c-9.91-3.17-25.61-21-30.12-42.23-1.74,43,44,66.78,82.23,67.24a97.34,97.34,0,0,1-.82-21.51c12.5,13.33,31.6,19.68,49.58,20.84,3.17-9.32,3.53-19.39,3.62-29.19.08-8.08-3.88-22.91-9.3-26.5,7.07,11.74,6.66,36.11,3.26,49.2-6-.42-28.36-6-34.28-19.58-.76,1.31-1.25,5.34-.21,8.46-8.24-5.08-11.91-13.31-13.88-22.57-6,16.06-2.89,34.5-2.89,34.5C720.48,463.18,695.91,452,688.45,430.47Z"/><path class="cls-2" d="M814.79,416.89a19.41,19.41,0,0,0-5.4-6.94c4,12.53,2.29,27.41.6,34.59a20,20,0,0,0-10-3.06c.1.73.18,1.46.27,2.19a55.35,55.35,0,0,1,13.19,8.68c8.95-23.86,5-52.82-9.76-73.59,0,0,5.16,2.61,7.51,6.76a42,42,0,0,1,9.12,3.58c.29-10.56-4-20.84-10.51-29.43,2.42,6.46,4.41,13.78,4.8,20-6.51-6.14-20.52-8.84-20.52-8.84C805.89,382.09,816.05,406.68,814.79,416.89Z"/><path class="cls-2" d="M134.88,615.47c-23.84-7.21-7.59-19.42-23.11-39,37.82-40,72.43-82.83,107.42-125.25-2.85,11.32-3.38,43.73-.61,58.94-29.93,33-55.35,69.68-81,106.06C137.62,616.25,135.87,615.77,134.88,615.47Z"/><path class="cls-2" d="M283.38,383.57a140.25,140.25,0,0,0-9.51,11.78c77.39-43.49,153.43,38.72,191.69,99.59,10.4-7.41,23.17-11.56,35.93-13.12a382.07,382.07,0,0,0-22.28-35.48c1.43,6,.47,14.69.47,14.69-8.93-9.3-21.86-16.72-33.59-17.55,8.16-2.36,19.61.75,26,3.69.33-4.53.24-10-2.17-13.28-8.64-11.79-18.31-21.73-27.22-30.3,3.42,5.68,4.13,15.11,4.13,15.11-8-7.64-22.11-12.17-35.06-11.76,7.51-3.62,18.75-1.77,24.73.14,0-3.92-2.57-10.09-3.6-12.43A203.1,203.1,0,0,0,399.62,371c3.91,5.33,5.32,13.42,5.32,13.42-12.17-6.73-18.84-6.82-31.57-6.25,8-4.35,17.59-3.69,22.12-2.36-.16-2.32-2.78-6.7-4.44-9.28-19.71-9-37.91-13.76-63.49-11.73C312.27,359.06,297.36,368.21,283.38,383.57Z"/><path class="cls-2" d="M738.26,827c.13-.62-.37-29.67-1.89-42.35-1.8,8.24-7.08,17.53-7.08,17.53C723,784.75,713.51,769,698.63,761.05c13.08.48,24,12.62,30.71,20.24,2.64-3.71,3.58-11.06,3.91-16.58a257.47,257.47,0,0,0-21.33-64c.38,7.15-2.94,15.21-2.94,15.21a75.09,75.09,0,0,0-37.8-26.49c10.89-1.41,24.8,3.66,32.4,8.68,1.42-3.89.72-9.52-.1-13.51-5.15-9.13-10.74-18-16.69-26.68-5.74-8.37-11.82-16.47-18.16-24.27,2.34,6.75,2.43,16.21,2.43,16.21-11.16-10.19-26.71-17.61-40.2-17.19,9.09-3.86,22-1.47,29.6,1.32.47-4.66-2.23-11.07-3.88-14.47A400.27,400.27,0,0,0,628,590.69a56.61,56.61,0,0,1,3,10.62c-11.53-6.78-25.12-11.76-37.07-9.31,7.49-4.64,18.46-3.57,25.68-2.42-.24-3.11-2.12-6.79-3.76-9.48a350.5,350.5,0,0,0-30.31-22.77,70.12,70.12,0,0,1,3.3,8.21c-10.2-5-23.15-7.34-33.12-4.53,6.06-4.39,16.25-5,22.44-4.42a13.54,13.54,0,0,0-2.9-5.82c-20.86-12.7-40.6-21-57-23.88a82.45,82.45,0,0,0-31.29,8.16s-6.14,8-6.59,17.87a26.83,26.83,0,0,1,15.92-.4v-.1c4.92,1.08,9.92,1.77,14.91,2.54-3.29-2.75-7.86-6-7.86-6,76.8,23.43,193.66,170.85,179.36,271.15-1,5.35-7.44,8.85-10.48,4.17,0,0,5.68,2.91,6.79-5.29a61,61,0,0,1-18.36-9.67c-14,3.32-26.39,10-39.33,18.72,19.54,22.4,52.81,42.78,82.83,30.77C724.17,848.5,736.92,833.3,738.26,827Z"/><path d="M568.1,280.48c-4.45,5-1.89,19.83,7.53,25C567,283.57,584,281.85,584,281.85c.71-11.68-2.77-24.3-12-32.09-10.81,6.75-14.67,21.24-11.46,33.06,0,0-.21-19.42,10.76-26.34,4.75,6.44,6.77,15.23,6.61,22.92C573.77,278.2,570.13,278.19,568.1,280.48Z"/><path d="M603.35,679c-6.12,2.77-9.89,7.78-12,17.57,5.67-7.91,8.76-9.65,17.37-11.73,6.39-1.54,10.87-.09,15.64-6.15C613.9,679.29,609.46,676.2,603.35,679Z"/><path d="M511,575.9c6.1.9,11.34,3.94,14.75,5.64a22.42,22.42,0,0,0-10.41-11.28c-4.41-2.35-7.81-1.84-12.37-1.09-6.75,1.69-11.94,5.86-17.82,9C491.27,579.59,503.92,574.85,511,575.9Z"/><path d="M862.76,454.73c-1.93,6.66,2.5,18.52,13,14.22,3.87-1.58,10-4.53,9.1-12.49-.68-6.32-.12-23.39-10.15-21.18C867.83,436.8,864.48,448.75,862.76,454.73Z"/><path d="M894.87,489h0c11.22,1.23,13.41-19.18,1.74-18.39C887.31,471.25,884.55,487.87,894.87,489Z"/><path d="M327.47,227.56c-5.24,8.76-4.2,12.5,5,18.07,8.73,5.27,11.54,4.77,16.36-2.93C359.91,225.78,339.22,207.32,327.47,227.56Z"/><path d="M111.84,479.07h0c8.75-2.51,10.06-17.1,3-18.77-3.09-.74-6.35,1.06-9.47,2.36C94.27,467.32,98.43,482.91,111.84,479.07Z"/><path d="M265.5,828.94c-2.1-3.3-6.09-4.08-8.48-1.06-4.7,6-11.14,8-18.15,9-18.59,1.39-31.11,24.2-14.74,37.09,11.66,7.91,31.41,1.74,29.43-10.65-.44-2.81,5.78-8,9.18-10.88C268.07,847.94,269.23,834.8,265.5,828.94Z"/><path d="M106.44,630.79c-5.42,6.28-3.38,21.22,5.89,23.89,13.83,4,24.45-16.59,15.59-26.85C123.72,623,109.69,627,106.44,630.79Z"/><path d="M569.31,853.87c-3.86-2.63-14.34-.22-16.79,3.88-2.94,4.88-.28,10.37,7.55,14.67,4.65,2.56,10,5.9,13.79.13h0C577.14,867.61,574.07,857.12,569.31,853.87Z"/><path d="M928,714c5.42-21.09-36.73-4.19-17.39-39.63,10.44-19.14-6.32-27.64-13.52-30.46-26.74-10.45-6.35-24.58-25.47-30.8-10-3.26-20.28-1.7-24.74-28.88-3-18.27,28.32-8.13,23.33-32.31-7.47-36.16,17.24-37.25,15.72-52-2.5-24.21-41.33-30.75-31.69-48.55,12.46-23-11.44-40,9.45-41.69,12.55-1,8-15.56,7.39-19.44-2.54-16.25-19.28-13.48-25.64-.17-4.46,9.28-7.46,30.56-20.26,37.23a88.08,88.08,0,0,0-8.69-33.66,95.64,95.64,0,0,1,10.13,7.73c4.94-18.83-3.28-37.84-16.68-51.1,6.61-12.43,12-25.69,14.26-39.7-.64-10.54-6.06-20.36-10.16-29.84,7.14-6.46,15.81-11.07,23.6-16.53-6.47-21.71-17.3-41.58-30.57-59.75,41.81-23,43.62-71,.1-93.69A53.85,53.85,0,0,1,808.32,145c-.21-40-40.44-66-77.87-59,5.08,3.26,9.84,6.59,13.22,11.36-30.28-18.48-68.5-11.76-100.09.6,14.36,1.61,31.56,5.61,43.32,15.74-36.57-13.6-88.4-5.39-115.43,22.24a10,10,0,0,1-4.71-1.42c-23.78-17.08-23.25-2.74-38.86-5.5-10.89-2.59-19.19,1.74-27.49,8.12-5.2,4-11.68,6.25-17.22,9.85-6.33,4.12-12.22,5-17.94-.66-20.55-14.39-.37-21.94-25.47-32.3-8.4-3.25-17.1-6-25-10.2-30.2-17.61-23.2,24.89-42.66,13.9-7.9-4-10.29,7.58-13.06,13.26-15.87-3.26-22.63-33-34.51-6.34-13.44-10.7-38.35-8.62-40.91,11.44-1,5.2-5.64,2.64-8.47,11.15-1.86,5.58,8.39,8.16,12.42,12.41-6.8,2.32-18.86,1.05-18.23,11.12.26,4.92,2,7,8.19,7.86,11.65,1.66,18.47,8.13,24.94,9.91,3.66,1,12,1.85,15.21-.25,5-3.3,9.95-17.88,22.39-8.31,6.41,4.83,12.51,5.29,19.84,3.22,22.23-3.85-7.06,22.12,12.57,49.12,5.62,11.25-20,5.12-8,22.22,4.3,6.83,11.75,14.35,9.1,23-7.84,19.13,4.79,15.33,18.59,15.87-1.62,7.54-5.35,12.44-12.48,14.14-14.47,3.47-31.15,8.63-37.71,21.74-10.1,19.44-151.58,25.67-154.8,5.88-1.79-11-19.82-10-20.7-18.63-1.73-16.86-23.56-15.59-23.42-6.45.16,11.07-10.44,17.12-14.49,22.88-13.52,19.68,31.77,46.57,13.93,52.73-8.66,3-18.7,1.62-25.32-6-7.07-8.19-19.59-13.77-21-2.55-1.7,13.63,5,9.75,7.44,21.37,2.77,13,14.78,4.24,25.07,12.62,14.18,8.93-14.51,26.49,15.92,47.21,2,1.39,2.42,2.88,2.07,3.64-15.11,30.31,26.71,46.24-9.58,60.27-27.3,11.21-14.6,30.5-28.06,33.4-10.18,2.19-10.3,19.11-6.33,23.73,13.29,15.49,5.44,25.15,11.91,33.36,12.89,16.37,29,6.74,27.13,24-.88,7.83,8.13,9.1.36,27.78-3.29,8,4.38,26.87,14.91,30.41h0c5.79,19.93,16.37,30.7,41.23,31a82.33,82.33,0,0,0,44.18,29.56h0c17.53,26.3,63.7,11.51,80,17,7.19,2.41,19.5,8.69,9.93,18.24-10.87,10.85,9,17.19-4.58,24.09-16.52,8.41-18.93,26-37,30.79-12.22,3.22-22.21,10.5-25.75,23.17-2.18,7.84,4.57,16.73,12.26,14.91,12.08-2.85,20.55-18.08,30.22-24.5C332,843,354.38,825.73,382,828.78c14.77,1.64,30.16.5,45,1.72,6.86.57,4.77,5.57,3.82,7.93-2.88,11.65-22.95,25.18-7.45,35.36,8.17,7.49,6.21,22.57,7.07,32.93,2.08,18.52,29.81,28.1,35.64,6.15,6.23-23.47-18.51-13.81-5.7-38.28s21.29-7.81,35.13-21.1c25.89-24.89,22.61,11.7,62.93-6.4,22.29-10,42.64-8.71,60-14,14.49,16.23,48.11,41.92,70.52,38.58,16-1.2,48.54-13.48,61.09-29.45,46.94,10.31,90.64-9.86,117.43-49.12,22.53-5.24,29-27.42,27.29-48,8.49-3.92,15.69-7,21.39,3.71,9.95,18.68,20-2.12,19.9-11.74C935.88,724.49,924.56,727.46,928,714ZM742.29,469.52c-38.19-.46-84-24.23-82.23-67.24,4.51,21.25,20.21,39.06,30.12,42.23a55.55,55.55,0,0,1-1.73-14c7.46,21.49,32,32.71,48.92,32.7,0,0-3.06-18.44,2.89-34.5,2,9.26,5.64,17.49,13.88,22.57-1-3.12-.55-7.15.21-8.46,5.92,13.56,28.32,19.16,34.28,19.58,3.4-13.09,3.81-37.46-3.26-49.2,5.42,3.59,9.38,18.42,9.3,26.5-.09,9.8-.45,19.87-3.62,29.19-18-1.16-37.08-7.51-49.58-20.84A97.34,97.34,0,0,0,742.29,469.52Zm-8.43,58.88c14.86,50.84,7.36,66.68-22.44,134.59q-4.41-7-9.18-13.76C731,596.86,736.43,557.15,733.86,528.4Zm-351.1,83.2a104.63,104.63,0,0,1-19.93-4.42c1.54-27.22,1.34-46.69-11.9-64,38.55-2.57,76.16-16.41,94.06-34.14-9.33,24.26-56.08,53.19-66.05,56.77-3.84-7-8.91-13.55-15.64-18l-.35.36C377.15,565.86,382.12,589.42,382.76,611.6ZM273.87,395.35a140.25,140.25,0,0,1,9.51-11.78c78.18-85.89,185.25,22.53,225.78,97.61-15.22.65-31.12,4.86-43.6,13.76C427.3,434.07,351.26,351.86,273.87,395.35Zm-10.64,80.5c11.34-8.76,35.21-14.16,44.57-13.71-46.3,11.25-77.71,50.05-98.57,84.86-3,.31-5.94.72-8.89,1.23,13.5-25.16,31.55-47.25,52.87-66.34l-.91-1.19c-6.29,4.67-12.76,9.66-18.55,14.87-3-26.38,5.25-55.78,22.91-75.59,22-23.73,57.39-32.41,88.48-24.57C309.91,392.75,261.5,412.23,263.23,475.85ZM134.88,615.47c-23.84-7.21-7.59-19.42-23.11-39,37.82-40,72.43-82.83,107.42-125.25-2.85,11.32-3.38,43.73-.61,58.94-29.93,33-55.35,69.68-81,106.06C137.62,616.25,135.87,615.77,134.88,615.47ZM512.53,487.11c5.76,10.4,11.26,20.7,16.12,31.29-2.86.06-5.88.27-9,.64-3.13-7.3-9.09-20.87-14.38-31.13A70.6,70.6,0,0,1,512.53,487.11ZM488.08,373.78c-11.39-2.66-40.78-3.26-57.38-.35q-4.81-3.45-9.81-6.61l1.09-.26c25.7-5.52,52.43-3.93,78.26.21,11.29,74.67,93,120.74,164.36,107.46C565.87,499.35,493,427.4,488.08,373.78Zm109.61-116.3h0c-12.45,19.25-18.16,43-19.34,66.61-15.32-5.31-21.59-25.32-23.11-40.17C552.38,250.63,571.7,217.12,597.69,257.48Zm-59.53,86.24c8.6-6.38,17.39-12.63,26.4-18.43,3.84,3.61,8.4,6.29,13.69,6.93.17,9.81,1,19.18,3.34,28.53-7.15,27.51-10.43,70.93-6.24,91.94a131.91,131.91,0,0,1-27-19.1c0-19.19,12.17-55.57,17.58-73.14-17.77,17.51-32.22,33.16-46.48,33.87a100.83,100.83,0,0,1-8.2-28.34C519.39,357.72,528.9,350.78,538.16,343.72ZM609,354.6s-8.63,8-11.35,23.67c-20.51-31.72-13.8-75.63-1.47-109.45-8.29,27.43-9.49,66.59.9,89.6,3.61-6.35,12-10.68,14.94-11.18,8.78,44.32,26.52,75.52,51.44,85.06a53,53,0,0,0,2.28,5C628.2,429.54,615.4,387.84,609,354.6Zm26.26-24.88c20.58-23.14,55.75-18.57,81.58-7.33-29-10-71.12-3.41-83.4,19.91-13.57-27.24-18-97.18,10.8-128.55C623.76,247,624.56,292.92,635.27,329.72Zm56.64,34.5c3.25-.19,7.26-.35,10.48-.32,1.16,4.25,2.91,4.77,2.91,4.77,0-1.69-.09-2.91,0-4.75,17.61.34,35.35,1.94,52.48,6.22l1.08-1.27c-15.08-5.49-41.24-7.93-53.62-8.4,0-2.17.08-4,.26-6.48-1.51.63-2.89,4-3.16,6.31-3.2-.19-7.35-.24-10.59-.23a39,39,0,0,1,.41-9.28c-2.47,1.95-3.11,6-3.31,9.36a63.44,63.44,0,0,0-11.95,1.37,15.84,15.84,0,0,1,1.79-5.6c10.59-20.14,71.51,7.94,95.06,10.05,0,0-10.31,4.24-14.81,11.28-9.75-3.71-36.9-7.49-58.37-1.38-12.95.81-20.92-3.27-23.13-9.38a56.55,56.55,0,0,1,11.64-2c1.49,5.86,3.8,7.1,3.8,7.1C692.45,369.13,692.11,366.67,691.91,364.22Zm92,111.47c3.06.57,6.13,1,9.17,1.24,11.59,15.64,21.21,33.13,29.61,50.72.69,20.72-3.67,41.57-8.29,61.74a24.34,24.34,0,0,0-7.37-4.55c17.1,19.13,35.06,55.94,46.39,84.26a64.52,64.52,0,0,0-18.59,3.24c-17-52.75-31-82.86-58.63-111.06,0,0,17.69,7,26.8,16.62,3.89-10.17,5.51-32.39,6.91-49.83C803.48,512.84,792.4,487.07,783.87,475.69Zm36.45-86.59a42,42,0,0,0-9.12-3.58c-2.35-4.15-7.51-6.76-7.51-6.76,14.77,20.77,18.71,49.73,9.76,73.59a55.35,55.35,0,0,0-13.19-8.68c-.09-.73-.17-1.46-.27-2.19a20,20,0,0,1,10,3.06c1.69-7.18,3.36-22.06-.6-34.59a19.41,19.41,0,0,1,5.4,6.94c1.26-10.21-8.9-34.8-20.7-46.09,0,0,14,2.7,20.52,8.84-.39-6.19-2.38-13.51-4.8-20C816.35,368.26,820.61,378.54,820.32,389.1Zm-6.07-79.62c-1.71,12-6.31,23.79-10.83,35.1l-1.19-.89c1.62-9.61-.22-33.1-4.55-49.62a21.85,21.85,0,0,1,1.05-6.55,15.55,15.55,0,0,0,8.84.53C809.87,295.25,812.71,302.22,814.25,309.48Zm.36-76.52a192.47,192.47,0,0,1,10.53,24.53c-6.76-1.29-16.46-.95-28.6,1.82-.27-7.5-3.74-11.69-3.74-11.69,1.37,11.62.18,24.07-7.86,32.9,9,10.11,11,44.23,9.77,59.13-7.87,5.71-22.53,8.14-30.6,3.27-9.61-5.8-16.86-10.49-28-5.47-3.35-3.66-5-8.84-5.33-13.81,4.19-4.12,9.73-7,15.16-9.29,8.54,7.13,14,6.88,14,6.88-4.71-3.94-9.66-8.24-11.88-14-8.83,2.91-17.32,6.37-24,13.27-15.33-7.91-35-13.06-53.18-11.87-2-11.32-14.44-16.06-15.72-34,4.89-17.84,50.54-29,60.37-27,4.78.93,14.88,4.5,25.14,9.51-16.08-4.59-30.52-3.38-44.88,3.88,3.5,1.89,9.2,6.91,9.2,6.91,8.55-1.7,25.47-1.29,33.41,7.39-4.76,6.64-20.6,7.38-32-1.67,1.86,9.89,11.26,12.52,18.61,13.92-3.06,1.57-6,1.54-11,1.43,5.72,7,30.22,4,44.52-1.87a15.61,15.61,0,0,1,3,11.42c9.44-5.85,10.67-16.08,10.47-22.15,11.14-5.1,12.72-20.55,6.56-30.06,0,0,1.18,6.18-1,11.39-45.43-28.49-58.41-33.56-101-17.36,1.9-19.23,46.72-22.1,50.87-26.12,4.31-4.18-1.32-21.08-11.92-28.73,23,2.85,46.08,13.09,64.55,24.2a49.71,49.71,0,0,0,19.12-2.09A178.74,178.74,0,0,1,814.61,233Zm-231-97.38c33-27.32,79.83-23.26,118.6-12.25,0,0-8-14.45-29.67-25.79,41.13-11.63,82.05,5.33,104.93,41.09,0,0-.45-9.08-13.09-24.23-5.12-6.13-7.91-13.87-13-20.08,31.74,1.26,57.75,32.79,50.54,64.22,11.53-4.53,15.76-17.16,16.53-28.87,35.89,30.85-14.4,94.39-53.44,64.51,8.92-8.59,9.29-22.87,4.93-24.15.27,4.21-3.72,7.84-8.52,8.78,6.42-8.64,10-38.22-12-48.87,0,0,6.26,18.82-1.81,24.71-.67-40.6-31.07-50.51-49.8-46.26,0,0,13.58,14.45,15,27.24-48.52-26.08-102.25-14.24-110.45,3.17,6.64-1.9,15.4-.34,18.36,3.07-31.68,1.57-50.42,30.84-49.46,44.5,4.23-4.91,9.71-8.42,14-9.43-11.31,11.34-10.71,39.22-7,54.74-7.42-1.74-15,.29-21,8-2.89-26.35,3.74-57.43,19.47-77.58,0,0-6.82,2-18.41,21.8C559.66,165.19,569.26,147.68,583.63,135.58ZM186.49,704.71a36.6,36.6,0,0,0,1.91,6.06c-3.07,1.06-9.39.39-11-.44-4.18-2.17-12-15.43-14.76-25.66,2.06-14.36,12.27-27.39,13.93-42.29-2.84-29,6.2-57.87,18.47-83.87,3.39-.79,6.79-1.42,10.2-1.92-6.31,14.44-26.71,64.3-14.51,78.72,5.83-29.16,13.42-55.18,36.47-79.95,31.6,1,62.73,13.35,88.25,32.39-31.62-11.4-74-6.08-93.57,27.93l.41.28c23.94-25,59.88-31.58,91.77-19.8C344.45,609.26,374,624,408.42,617.4c-2.16,2.27-4.37,4.48-6.77,6.57l.25.43c20.5-10.57,33.92-30.68,50.3-46.29,5.77-5.91,14.47-8.87,20.93-14.25,13.25-11.33,22.12-6.61,36.78-.87a33.86,33.86,0,0,0-2.82-3.64A51.23,51.23,0,0,1,529,572.67a37.84,37.84,0,0,1-6.84-1.37c4.41,9.11,15,9.8,21.81,13.35,6.13,3.05,11.61,8.8,15.27,13.43-.39,5.62-13.66,0-16.13-.8-.11,1.52,4.89,5.66,6.73,6.29,8.89,3,10.76,3.84,17.78,9.11,9,8,8.07,13.8-8.57,8.46.51,8.29,13.43,9.61,20.07,14.93,4.42,2.49,7,10.25,8.57,12.41-.61,0-1.23,0-1.84,0h0c-12.28,1.92-15.19-2.15-31.14.6-10.64,2.13-20.34-10-18.88-14,1.19-3.16,9.77-4.23,12.37-5.21-7.36-22-27.94-14.72-28.31-31.29,8.13-1,12,2.06,15.94,1.63-.32-.84-5.85-10.42-12.36-12-11.72-3.91-38.09,4.23-43,12-15,24-35.37,44.44-65.42,60.65-6.08-6.94-8.68-17.36-7.82-28.21-5.64,3.47-7.81,10.85-9.11,16.93-12.81,5.13-129.47,25.69-175.24,7.52-18.79,17.12-42,22.39-50.82,22.13.51,11.7,13.91,19.91,22.07,20.2,12.36,21.6,38.87,36.68,51.61,39.74,30,7.19,101.6-1.28,116.58-18.85-32.55,5.86-73.28-4.34-63.8-7.81,51.25-18.8,92.44,4.18,122.38-7.82,8.65-3.46,14,9.44,40,9.77,20.81.26,28.61-5,35.89-10.07-.32,1.57-.62,3.14-.9,4.73-15.78,11.12-37.27,12.46-55.42,6.91-8.15-3.55-16.74-.07-24.51,2.61-8.13,2.72-17.39.46-25.81,3-45,12.53-88.82,34.92-136.85,28.49C225.08,746.44,204,725.62,186.49,704.71Zm456.06,12.61c10.17,1.33,17.06,9.8,17.68,19.89-3.93,13-8.38,18.19,4.57,27.15,4.75,8.63-4.23,31.44-12.14,35.94-17.44,7.22-52.4,32.49-62.65,4.64,2.2-1.18,7.39-8.37,13.45-12.15,15-6.63,22.89-16.17,30.38-25.61-4.4,1-17.53,9.21-22.14,13.13-7,6-29.7,13.05-36.13,9.12-3.29-2-11.79-5-14-11.07,4.92-12.7,24.55-29.25,34.54-33.53,6.4-2.74,12.21-8,13.83-13.51-13.59,9.34-32.68,15.29-45.48,23.62-3,1.61-13.61,5.75-18.3,6.42-2.24.32-16.62-9.54-16-17,.32-4.17,5.83-11.69,8.66-14.12,8.86-8.63,45.14-22.5,44-34.34C570,709.07,542.61,712,528.05,726.6c-6.77-4.9-14-13.27-15.69-22.61-3.77,4.44-2.11,14.06-.11,17.93a106.53,106.53,0,0,0-2,13.22c-2.15-3.23-4-6.47-5.38-8.9-1.17-4.92-.16-10,.48-15.27a145.94,145.94,0,0,1,3.43-16.13c12.67-12.62,31.66-17,47.06-26.29,7.09-3.69,12.05-10.46,20.56-11.76,9.49-1.65,21.4-2.78,30.24,1.44,2.28,4.77,4.13,9.83,7,14.57,5.87,2,12.46,2.24,18.28,3.37q6.28,10.23,11.92,20.84c-.17,4.15-.72,8.68-1.06,12.94-6.23-.31-13.85,6-15.06,12.3C629.58,718.48,640,717,642.55,717.32ZM515.21,781.49c-9.71-13.85-21-25.46-15.22-43.74,3.91,6.82,8.76,13.78,15.78,16.78C517.05,768,526.29,780.46,538,786.9,530.74,789,519.15,786.26,515.21,781.49ZM617.41,832l.06.06Zm-4.34-5.73.15.23Zm.52.8.17.25Zm.6.87c.06.07.11.15.16.22S614.25,828,614.19,828Zm.76,1,0,.06Zm1.6,2,0,0Zm128.33,0c-4.64,12.34-31.11,24.56-40.51,27.81-30,12.12-63.38-8.28-83-30.72,12.94-8.74,25.37-15.4,39.33-18.72A61,61,0,0,0,679.11,819c-.35,3.41-2.83,7.63-6.5,4.88l-.29.41c3,4.68,9.5,1.18,10.48-4.17C697.1,719.84,580.24,572.42,503.44,549c0,0,4.57,3.22,7.86,6-5-.77-10-1.46-14.91-2.54v.1a26.83,26.83,0,0,0-15.92.4c.45-9.86,6.59-17.87,6.59-17.87a83.25,83.25,0,0,1,49.09-7.33C620,561.89,691.69,629.48,727,713.27,740.6,746.21,749.83,817.8,744.88,831ZM884.53,761.5c-4.5,3.77-15,7.18-23.68,5a13.58,13.58,0,0,0,5.4,7.91c-5,23.13-41.29,51.22-63.64,57.08a125.56,125.56,0,0,1-48.38,3.06,38,38,0,0,0,1.48-11.47c41.62,5.19,60.78-8.78,89.31-41.16,3.26-4.92,6.56-14,7.39-19.44-4.54,6.13-16,12-25.87,14.18-8.93,2-58.56-11.57-75.28-17.73a273.58,273.58,0,0,0-19.9-59.4c7.54-5,30-11.53,67.81-11.15-14-7.08-50-8.89-73.95-1.37q-1.92-3.7-3.94-7.37c26.39-2.85,54-6.25,80.29-1.1,18.18,6.47,35.67,25.77,49.72,39,0,0-6.25-11.33-27.88-32.21,9.91-5.57,21-10.15,32.45-10.34a553.8,553.8,0,0,1,19.52,55.48l2,2.3C884.5,740.86,886.59,750.11,884.53,761.5Z"/><path d="M301.7,822.8c11.19-2.86,6.87-18,1.05-21.73C286.82,790.87,282.38,827.26,301.7,822.8Z"/><path d="M513,894.35c-3.51-3.55-9.32-1.59-14.89-2.3,1.81-11.53-6.65-20.28-16.45-22.83-9.45-2.46-10.71,12.29-3.57,18.74,2.12,2.25,6.57,5.09,2.47,10.46-12.46,16.35,8.55,27.93,21.25,20,10.92-6.82,23-1.62,24.78-10.83C527.67,901.82,519.33,900.79,513,894.35Z"/><path d="M336,194.32a19.15,19.15,0,0,0-6-.6h0c-7.84.38-8.48,7.88-3.16,16.41C332.62,219.86,356.4,202.34,336,194.32Z"/><path d="M375,100.84c13.43,7.67,19-7.91,11.8-15.34C376.93,75.43,361.3,93,375,100.84Z"/><path d="M206.63,167.19c21-12.69,34,37.65,50,2.25,4.32-9.57,5.61-17.54,14.51-26.56,6.86-6.94-2.92-16.6-10.6-15.64s-11.32-.4-16.18-7.93c-3.37-5.21-16.11-7.52-23.63-6s-17,6.75-21.09,15.07c-2.22,4.52-.42,9.47.25,13.73.78,4.89,4.61,8.89-3.06,13-2.66,1.41-3.8,5.5-2.14,8.53S203.8,168.9,206.63,167.19Z"/><path d="M267.15,119.33h0c9.93,4.64,21.29-3.74,32.13-4.7,5.41-.4,8.81-3.52,7.05-7.53-2.76-6.19-6.88-14.64-12.14-16.16-10.33-2.2-11.25,7-17.23,11.14-4.64,3.17-11.07,4-13.44,10.48C262.41,115.59,264.91,118.28,267.15,119.33Z"/><path d="M105.38,450.09h0c14.76-23.62-14-43.07-29.88-20.63-6.92,10-3.06,19.73,7,27.09C89.81,461.84,100,458.59,105.38,450.09Z"/><path d="M97.42,363.48c6.29,4.69,10,2.37,13.7,0,7.08-4.44,5-14.74-.21-17.76s-12.71,0-14.73,4.49C94.67,353.65,93.37,360.46,97.42,363.48Z"/><path d="M135.91,302h0c9.06-1.28,7.2-15.95,2-18.49A8.08,8.08,0,0,0,127,287.36C122.18,297.21,127.59,303.13,135.91,302Z"/><path d="M209.51,322.56c-3.36-1.13-10.08-3.41-12.53.88h0c-3.2,6.84,10.06,18.24,16.32,16.4,4.33-1.28,7.43-6.45,6.31-10C218.21,325.45,212.59,323.6,209.51,322.56Z"/></svg>