<svg id="artwork" xmlns="http://www.w3.org/2000/svg" viewBox="0 0 1008 1296"><path d="M200.57,1168.9l-16.28,47.51h8.58l4.22-12.6h19.09l4.22,12.6h8.65L212.7,1168.9Zm-1,27.74,7.1-21.11,7.1,21.11Z"/><polygon points="235.75 1216.4 244.12 1216.4 244.12 1196.84 266.3 1196.84 266.3 1189.6 244.12 1189.6 244.12 1176.14 269.11 1176.14 269.11 1168.9 235.75 1168.9 235.75 1216.4"/><path d="M313.13,1186.12V1181c0-8.24-4-12.06-12.59-12.06H276.62v47.51H285v-18.3h8.11l14.27,18.3h9.85l-14-18.43C309.92,1197.24,313.13,1193.42,313.13,1186.12ZM285,1190.88v-14.74h13.13c5,0,6.64,1.54,6.64,6.09v2.62c0,4.55-1.68,6-6.64,6Z"/><path d="M336.31,1168.9,320,1216.41h8.58l4.22-12.6h19.09l4.22,12.6h8.65l-16.35-47.51Zm-1,27.74,7.1-21.11,7.1,21.11Z"/><rect x="371.49" y="1168.9" width="8.38" height="47.5"/><path d="M414.57,1168.9H390.65v47.51h23.92c8.57,0,12.59-3.82,12.59-12V1181C427.16,1172.72,423.14,1168.9,414.57,1168.9Zm4.22,34.24c0,4.56-1.68,6.1-6.63,6.1H399v-33.1h13.14c4.95,0,6.63,1.54,6.63,6.09Z"/><polygon points="490.88 1168.9 481.03 1168.9 466.49 1188.67 460.39 1188.67 460.39 1168.9 452.02 1168.9 452.02 1216.4 460.39 1216.4 460.39 1195.84 466.56 1195.84 482.37 1216.4 492.22 1216.4 473.86 1192.22 490.88 1168.9"/><polygon points="528.6 1202.67 507.16 1168.9 498.85 1168.9 498.85 1216.4 507.23 1216.4 507.23 1182.5 528.73 1216.4 536.98 1216.4 536.98 1168.9 528.6 1168.9 528.6 1202.67"/><path d="M572.28,1168.23H559.55c-8.64,0-12.66,3.82-12.66,12.06v24.79c0,8.18,4,12,12.66,12h12.73c8.65,0,12.6-3.82,12.6-12v-24.79C584.88,1172.05,580.93,1168.23,572.28,1168.23Zm4.22,35.58c0,4.56-1.6,6.1-6.56,6.1h-8c-5,0-6.63-1.54-6.63-6.1v-22.25c0-4.55,1.67-6.09,6.63-6.09h8c5,0,6.56,1.54,6.56,6.09Z"/><polygon points="590.91 1176.14 605.92 1176.14 605.92 1216.4 614.29 1216.4 614.29 1176.14 629.37 1176.14 629.37 1168.9 590.91 1168.9 590.91 1176.14"/><path d="M687.46,1186.12V1181c0-8.24-4-12.06-12.6-12.06H650.94v47.51h8.37v-18.3h8.11l14.27,18.3h9.85l-14-18.43C684.24,1197.24,687.46,1193.42,687.46,1186.12Zm-28.15,4.76v-14.74h13.14c5,0,6.63,1.54,6.63,6.09v2.62c0,4.55-1.67,6-6.63,6Z"/><path d="M721.49,1168.23H708.76c-8.64,0-12.66,3.82-12.66,12.06v24.79c0,8.18,4,12,12.66,12h12.73c8.64,0,12.6-3.82,12.6-12v-24.79C734.09,1172.05,730.13,1168.23,721.49,1168.23Zm4.22,35.58c0,4.56-1.61,6.1-6.56,6.1h-8c-5,0-6.64-1.54-6.64-6.1v-22.25c0-4.55,1.68-6.09,6.64-6.09h8c5,0,6.56,1.54,6.56,6.09Z"/><path d="M768,1168.9H744.2v47.51h8.38v-17.89H768c8.64,0,12.59-3.82,12.59-12.06V1181C780.58,1172.72,776.63,1168.9,768,1168.9Zm4.22,16.28c0,4.56-1.68,6.1-6.57,6.1H752.58v-15.14h13.06c4.89,0,6.57,1.54,6.57,6.09Z"/><polygon points="787.95 1216.4 821.32 1216.4 821.32 1209.24 796.33 1209.24 796.33 1195.57 818.51 1195.57 818.51 1188.4 796.33 1188.4 796.33 1176.14 821.32 1176.14 821.32 1168.9 787.95 1168.9 787.95 1216.4"/><path d="M854.48,1189.54l-11.59-1.68c-5.42-.8-6.56-1.74-6.56-5.49v-.81c0-4.55,1.74-6.09,6.7-6.09h7.57c4.89,0,6.56,1.54,6.56,6v.47l8.38-1v-.73c0-8.11-3.95-11.93-12.6-11.93H840.55c-8.58,0-12.6,3.82-12.6,12.06v4.16c0,7,3,9.84,11.39,11l11.59,1.68c5.23.73,6.5,1.81,6.5,5.49v1.14c0,4.56-1.67,6.1-6.56,6.1h-8.18c-5,0-6.63-1.54-6.63-6v-.47l-8.31,1a1.82,1.82,0,0,0-.07.74c0,8.11,4,11.93,12.67,11.93h12.86c8.64,0,12.6-3.82,12.6-12v-4.42C865.81,1193.62,862.93,1190.74,854.48,1189.54Z"/><path d="M572.06,246.21c-10.81,6.76-14.67,21.24-11.46,33.07,0,0-.21-19.43,10.76-26.34,4.75,6.43,6.77,15.22,6.61,22.91-4.2-1.2-7.84-1.21-9.87,1.08-4.45,5-1.89,19.83,7.53,25C567,280,584,278.3,584,278.3,584.72,266.62,581.24,254,572.06,246.21Z"/><path d="M603.35,675.42c-6.12,2.76-9.89,7.77-12,17.57,5.67-7.91,8.76-9.65,17.37-11.73,6.39-1.55,10.87-.1,15.64-6.15C613.9,675.74,609.46,672.65,603.35,675.42Z"/><path d="M511,572.35c6.1.91,11.34,3.94,14.75,5.65a22.4,22.4,0,0,0-10.41-11.29c-4.41-2.34-7.81-1.83-12.37-1.08-6.75,1.68-11.94,5.86-17.82,9C491.27,576,503.92,571.3,511,572.35Z"/><path d="M862.76,451.18c-1.93,6.66,2.5,18.53,13,14.23,3.87-1.59,10-4.54,9.1-12.5-.68-6.31-.12-23.39-10.15-21.17C867.83,433.26,864.48,445.2,862.76,451.18Z"/><path d="M894.87,485.46h0c11.22,1.24,13.41-19.18,1.74-18.39C887.31,467.7,884.55,484.33,894.87,485.46Z"/><path d="M327.47,224c-5.24,8.76-4.2,12.51,5,18.07,8.73,5.27,11.54,4.77,16.36-2.92C359.91,222.24,339.22,203.77,327.47,224Z"/><path d="M111.84,475.53h0c8.75-2.5,10.06-17.09,3-18.77-3.09-.73-6.35,1.06-9.47,2.37C94.27,463.77,98.43,479.36,111.84,475.53Z"/><path d="M106.44,627.24c-5.42,6.28-3.38,21.22,5.89,23.89,13.83,4,24.45-16.58,15.59-26.85C123.72,619.41,109.69,623.47,106.44,627.24Z"/><path d="M157.05,691.4c4.52,15.55,11.95,25.52,26.8,29.32v429.71H867.06V790.08l.36-.5c22.53-5.23,29-27.41,27.29-48,8.49-3.92,15.69-7,21.39,3.72,9.95,18.67,20-2.12,19.9-11.75-.12-12.59-11.44-9.62-8-23.1,5.42-21.1-36.73-4.2-17.39-39.63,10.44-19.15-6.32-27.65-13.52-30.46-26.74-10.45-6.35-24.59-25.47-30.8-10-3.26-20.28-1.71-24.74-28.88-3-18.27,28.32-8.14,23.33-32.31-7.47-36.17,17.24-37.26,15.72-52-2.5-24.21-41.33-30.75-31.69-48.56,12.46-23-11.44-40,9.45-41.69,12.55-1,8-15.55,7.39-19.44-2.54-16.25-19.28-13.48-25.64-.16-4.46,9.27-7.46,30.55-20.26,37.22a88.13,88.13,0,0,0-8.69-33.66,95.64,95.64,0,0,1,10.13,7.73C831.58,379,823.36,360,810,346.74c6.61-12.44,12-25.7,14.26-39.7-.64-10.55-6.06-20.37-10.16-29.84,7.14-6.47,15.81-11.08,23.6-16.54-6.47-21.7-17.3-41.58-30.57-59.75,41.81-23,43.62-71,.1-93.68a53.8,53.8,0,0,1,1.13,34.23c-.21-39.95-40.44-66-77.87-58.95,5.08,3.26,9.84,6.58,13.22,11.35-30.28-18.48-68.5-11.76-100.09.61,14.36,1.6,31.56,5.61,43.32,15.73-36.57-13.6-88.4-5.38-115.43,22.25a9.91,9.91,0,0,1-4.71-1.43C543,114,543.51,128.29,527.9,125.53c-10.89-2.6-19.19,1.74-27.49,8.11-5.2,4-11.68,6.25-17.22,9.85-6.33,4.12-12.22,5-17.94-.65-20.55-14.39-.37-22-25.47-32.31-8.4-3.25-17.1-6-25-10.2-30.2-17.61-23.2,24.89-42.66,13.9-7.9-4-10.29,7.58-13.06,13.27-15.87-3.27-22.63-33-34.51-6.34-13.44-10.7-38.35-8.62-40.91,11.43-1,5.21-5.64,2.64-8.47,11.15-1.86,5.58,8.39,8.16,12.42,12.42-6.8,2.32-18.86,1-18.23,11.12.26,4.91,2,7,8.19,7.85,11.65,1.67,18.47,8.13,24.94,9.92,3.66,1,12,1.85,15.21-.26,5-3.3,9.95-17.88,22.39-8.31,6.41,4.84,12.51,5.29,19.84,3.22,22.23-3.85-7.06,22.12,12.57,49.13,5.62,11.25-20,5.12-8,22.21,4.3,6.83,11.75,14.35,9.1,23-7.84,19.13,4.79,15.33,18.59,15.87-1.62,7.54-5.35,12.44-12.48,14.14-14.47,3.47-31.15,8.64-37.71,21.75-10.1,19.44-151.58,25.66-154.8,5.88-1.79-11-19.82-10-20.7-18.64-1.73-16.86-23.56-15.59-23.42-6.45.16,11.07-10.44,17.12-14.49,22.88-13.52,19.68,31.77,46.57,13.93,52.73-8.66,3-18.7,1.63-25.32-6-7.07-8.19-19.59-13.77-21-2.55-1.7,13.63,5,9.75,7.44,21.37,2.77,13,14.78,4.25,25.07,12.62,14.18,8.93-14.51,26.49,15.92,47.21,2,1.39,2.42,2.88,2.07,3.65-15.11,30.3,26.71,46.23-9.58,60.27-27.3,11.2-14.6,30.49-28.06,33.39-10.18,2.19-10.3,19.11-6.33,23.74,13.29,15.48,5.44,25.14,11.91,33.35,12.89,16.38,29,6.75,27.13,24-.88,7.83,8.13,9.11.36,27.79-3.29,8,4.38,26.86,14.91,30.4M742.29,466c-38.19-.46-84-24.23-82.23-67.25,4.51,21.26,20.21,39.06,30.12,42.23a55.48,55.48,0,0,1-1.73-14c7.46,21.48,32,32.7,48.92,32.69,0,0-3.06-18.44,2.89-34.49,2,9.25,5.64,17.48,13.88,22.56-1-3.11-.55-7.15.21-8.46,5.92,13.56,28.32,19.16,34.28,19.58,3.4-13.09,3.81-37.45-3.26-49.2,5.42,3.59,9.38,18.42,9.3,26.51-.09,9.79-.45,19.86-3.62,29.19-18-1.16-37.08-7.51-49.58-20.85A97.44,97.44,0,0,0,742.29,466ZM729.15,798.1s10.4-16,11.79-34.47c4.87,28.3,6.84,56.08,3.94,63.8-4.64,12.34-31.11,24.57-40.51,27.82-30,12.11-63.38-8.29-83-30.73,12.94-8.74,25.37-15.4,39.33-18.72a61,61,0,0,0,18.36,9.67c-.35,3.41-2.83,7.63-6.5,4.88l-.29.41c3,4.68,9.5,1.18,10.48-4.16,14.3-100.31-102.56-247.73-179.36-271.16,0,0,4.57,3.22,7.86,6-5-.78-10-1.47-14.91-2.55v.1a26.83,26.83,0,0,0-15.92.4c.45-9.85,6.59-17.87,6.59-17.87a83.33,83.33,0,0,1,49.09-7.33,351.14,351.14,0,0,1,34.76,16.47c1.71,2.08,5.33,6.85,5.88,10.48-6.21-.53-16.41,0-21.56,5.25,10-2.82,23-.53,33.19,4.53a31.09,31.09,0,0,0-8.65-15.31,363.33,363.33,0,0,1,33.65,22.07c1.25,3.18,4.47,11.72,4.82,16.27-7.23-1.15-17.73-2-24.71,3.5,12-2.46,25.6,2.53,37.16,9.33a58.73,58.73,0,0,0-9.43-23.15,361.08,361.08,0,0,1,34.4,30.53c1.45,5.15,4.91,18.19,4.37,23.47-7.63-2.8-20.42-3.33-29.52.54,13.52-.42,29.1,7,40.29,17.23,0,0-.35-19.94-7.13-32.86a344.64,344.64,0,0,1,41.15,54.14c.68,4.64,1.93,16.36-1,26.12-7.63-5-22-9.15-32.9-7.73A75.15,75.15,0,0,1,708.8,711.6a57.21,57.21,0,0,0,2.47-33.93A318.84,318.84,0,0,1,727,709.72c4,9.65,7.61,22.62,10.6,36.46-.23,4.14-1.53,19.46-8.36,31-6.68-7.64-17.68-19.81-30.79-20.3C713.33,764.86,722.89,780.62,729.15,798.1Zm-86.6-84.32c10.17,1.32,17.06,9.79,17.68,19.89-3.93,13-8.38,18.18,4.57,27.14,4.75,8.64-4.23,31.44-12.14,35.94-17.44,7.22-52.4,32.49-62.65,4.64,2.2-1.17,7.39-8.37,13.45-12.15,15-6.63,22.89-16.16,30.38-25.6-4.4,1-17.53,9.2-22.14,13.12-7,6-29.7,13-36.13,9.12-3.29-2-11.79-5-14-11.06,4.92-12.7,24.55-29.26,34.54-33.53,6.4-2.75,12.21-8,13.83-13.51-13.59,9.33-32.68,15.28-45.48,23.61-3,1.62-13.61,5.75-18.3,6.42-2.24.32-16.62-9.54-16-17,.32-4.17,5.83-11.69,8.66-14.12,8.86-8.63,45.14-22.49,44-34.34-12.68,13.18-40.11,16.07-54.67,30.72-6.77-4.91-14-13.28-15.69-22.62-3.77,4.44-2.11,14.06-.11,17.93a106.38,106.38,0,0,0-2,13.23c-2.15-3.24-4-6.48-5.38-8.91-1.17-4.92-.16-10,.48-15.26a145.94,145.94,0,0,1,3.43-16.13c12.67-12.63,31.66-17,47.06-26.3,7.09-3.68,12.05-10.45,20.56-11.76,9.49-1.64,21.4-2.78,30.24,1.45,2.28,4.76,4.13,9.82,7,14.56,5.87,2,12.46,2.24,18.28,3.37q6.28,10.23,11.92,20.84c-.17,4.15-.72,8.68-1.06,12.94-6.23-.3-13.85,6-15.06,12.3C629.58,714.93,640,713.44,642.55,713.78ZM515.77,751c1.28,13.44,10.52,25.93,22.22,32.38-7.25,2.12-18.84-.65-22.78-5.42-9.71-13.85-21-25.46-15.22-43.73C503.9,741,508.75,748,515.77,751Zm-133-142.92a105.42,105.42,0,0,1-19.93-4.43c1.54-27.22,1.34-46.68-11.9-64,38.55-2.58,76.16-16.41,94.06-34.15-9.33,24.26-56.08,53.2-66.05,56.77-3.84-7-8.91-13.55-15.64-18l-.35.36C377.15,562.31,382.12,585.87,382.76,608.06ZM273.87,391.8A141.74,141.74,0,0,1,283.38,380c33-36.24,71.09-37.89,107.18-22.06a32.63,32.63,0,0,1,3.54,11.14c-4.54-1.32-15.3-.44-21.69,4,12.76-.57,19.44-.48,31.64,6.26,0,0-3-12.51-7-18.37a194,194,0,0,1,35.24,23.12c1.08,2,2.86,6.69,3.26,16-6-1.92-17.13-1.84-24.65,1.79,13-.42,27.1,4.13,35.14,11.78,0,0-.24-13.14-6.94-23.85a305.68,305.68,0,0,1,30.41,30.77,44.29,44.29,0,0,1,2.4,20.08c-6.42-3-18.45-4.52-26.62-2.16,11.75.84,24.72,8.27,33.67,17.59a55,55,0,0,0-2.32-26.95,325.58,325.58,0,0,1,32.51,48.43c-15.22.65-31.12,4.87-43.6,13.77C427.3,430.52,351.26,348.31,273.87,391.8Zm-10.64,80.5c11.34-8.76,35.21-14.16,44.57-13.7-46.3,11.24-77.71,50-98.57,84.85-3,.31-5.94.72-8.89,1.24,13.5-25.17,31.55-47.26,52.87-66.35l-.91-1.19c-6.29,4.67-12.76,9.66-18.55,14.87-3-26.38,5.25-55.78,22.91-75.58,22-23.74,57.39-32.42,88.48-24.58C309.91,389.2,261.5,408.68,263.23,472.3ZM134.88,611.92c-23.84-7.2-7.59-19.42-23.11-39,37.82-40,72.43-82.84,107.42-125.26-2.85,11.33-3.38,43.73-.61,58.94-29.93,33-55.35,69.69-81,106.06C137.62,612.7,135.87,612.22,134.88,611.92ZM422,363c25.7-5.52,52.43-3.93,78.26.21,11.29,74.67,93,120.74,164.36,107.46C565.87,495.8,493,423.86,488.08,370.23c-11.39-2.66-40.78-3.26-57.38-.35-3.21-2.29-6.48-4.5-9.81-6.6Zm213.29-36.84C655.85,303,691,307.6,716.85,318.84c-29-10-71.12-3.4-83.4,19.91-13.57-27.24-18-97.18,10.8-128.55C623.76,243.43,624.56,289.37,635.27,326.17Zm56.64,34.5c3.25-.18,7.26-.34,10.48-.32,1.16,4.25,2.91,4.77,2.91,4.77,0-1.68-.09-2.9,0-4.75,17.61.34,35.35,1.95,52.48,6.22l1.08-1.27c-15.08-5.49-41.24-7.92-53.62-8.39,0-2.18.08-4,.26-6.49-1.51.64-2.89,4-3.16,6.31-3.2-.19-7.35-.24-10.59-.22a39,39,0,0,1,.41-9.28c-2.47,1.94-3.11,6-3.31,9.36A62.63,62.63,0,0,0,676.85,358a15.89,15.89,0,0,1,1.79-5.61c10.59-20.14,71.51,7.95,95.06,10.05,0,0-10.31,4.24-14.81,11.28-9.75-3.71-36.9-7.49-58.37-1.38-12.95.82-20.92-3.26-23.13-9.38a56.53,56.53,0,0,1,11.64-2c1.49,5.85,3.8,7.09,3.8,7.09C692.45,365.58,692.11,363.12,691.91,360.67Zm-28.44,68.08a53,53,0,0,0,2.28,5C628.2,426,615.4,384.29,609,351.05c0,0-8.63,8-11.35,23.68-20.51-31.72-13.8-75.64-1.47-109.46-8.29,27.44-9.49,66.59.9,89.6,3.61-6.35,12-10.68,14.94-11.17C620.81,388,638.55,419.22,663.47,428.75Zm-85.1-108.22c-15.32-5.31-21.59-25.32-23.11-40.16-2.88-33.29,16.44-66.8,42.43-26.44h0C585.26,273.17,579.55,297,578.37,320.53Zm-40.22,19.64c8.61-6.38,17.4-12.62,26.41-18.43,3.84,3.61,8.4,6.29,13.69,6.93.17,9.82,1,19.18,3.34,28.53-7.15,27.51-10.43,70.94-6.24,91.94a131.91,131.91,0,0,1-27-19.1c0-19.18,12.17-55.57,17.58-73.14-17.77,17.51-32.22,33.17-46.48,33.88a101,101,0,0,1-8.2-28.35C519.39,354.17,528.9,347.23,538.15,340.17Zm-9.5,174.68c-2.86.06-5.88.27-9,.64-3.13-7.3-9.09-20.87-14.38-31.13a70.6,70.6,0,0,1,7.24-.8C518.29,494,523.79,504.26,528.65,514.85ZM702.24,645.68c28.74-52.36,34.19-92.07,31.62-120.83,14.86,50.85,7.36,66.69-22.44,134.6Q707,652.44,702.24,645.68Zm81.63-173.53c3.06.56,6.13,1,9.17,1.24,11.59,15.63,21.21,33.12,29.61,50.71.69,20.72-3.67,41.58-8.29,61.75a24.26,24.26,0,0,0-7.37-4.56c17.1,19.14,35.06,55.94,46.39,84.26a65.21,65.21,0,0,0-18.59,3.24c-17-52.74-31-82.86-58.63-111.06,0,0,17.69,7,26.8,16.62,3.89-10.16,5.51-32.39,6.91-49.83C803.48,509.29,792.4,483.53,783.87,472.15Zm36.45-86.6A42,42,0,0,0,811.2,382c-2.35-4.15-7.51-6.76-7.51-6.76,14.77,20.77,18.71,49.73,9.76,73.59a55.61,55.61,0,0,0-13.19-8.67c-.09-.73-.17-1.46-.27-2.19A19.92,19.92,0,0,1,810,441c1.69-7.19,3.36-22.07-.6-34.6a19.45,19.45,0,0,1,5.4,7c1.26-10.22-8.9-34.81-20.7-46.1,0,0,14,2.7,20.52,8.84-.39-6.18-2.38-13.51-4.8-20C816.35,364.72,820.61,375,820.32,385.55Zm-6.07-79.61c-1.71,12-6.31,23.79-10.83,35.09l-1.19-.89c1.62-9.61-.22-33.1-4.55-49.62a21.74,21.74,0,0,1,1.05-6.54,15.63,15.63,0,0,0,8.84.53C809.87,291.7,812.71,298.67,814.25,305.94Zm.36-76.53a192.47,192.47,0,0,1,10.53,24.53c-6.76-1.29-16.46-.95-28.6,1.83-.27-7.5-3.74-11.7-3.74-11.7,1.37,11.62.18,24.07-7.86,32.91,9,10.1,11,44.22,9.77,59.12-7.87,5.72-22.53,8.15-30.6,3.27-9.61-5.8-16.86-10.48-28-5.47-3.35-3.66-5-8.84-5.33-13.81,4.19-4.12,9.73-7,15.16-9.29,8.54,7.13,14,6.88,14,6.88-4.71-3.93-9.66-8.24-11.88-14-8.83,2.92-17.32,6.38-24,13.27-15.33-7.91-35-13.05-53.18-11.86-2-11.33-14.44-16.07-15.72-34,4.89-17.84,50.54-28.95,60.37-27,4.78.93,14.88,4.51,25.14,9.51-16.08-4.59-30.52-3.37-44.88,3.88,3.5,1.89,9.2,6.91,9.2,6.91,8.55-1.7,25.47-1.29,33.41,7.4-4.76,6.63-20.6,7.37-32-1.68C708.28,280,717.68,282.59,725,284c-3.06,1.57-6,1.55-11,1.44,5.72,7,30.22,4,44.52-1.88a15.63,15.63,0,0,1,3,11.43c9.44-5.86,10.67-16.09,10.47-22.15,11.14-5.1,12.72-20.56,6.56-30.07,0,0,1.18,6.18-1,11.4-45.43-28.49-58.41-33.57-101-17.37,1.9-19.23,46.72-22.1,50.87-26.12,4.31-4.17-1.32-21.08-11.92-28.73,23,2.85,46.08,13.09,64.55,24.21a49.93,49.93,0,0,0,19.12-2.1A179.87,179.87,0,0,1,814.61,229.41ZM583.63,132c33-27.32,79.83-23.27,118.6-12.26,0,0-8-14.45-29.67-25.79,41.13-11.63,82.05,5.33,104.93,41.1,0,0-.45-9.09-13.09-24.23-5.12-6.13-7.91-13.87-13-20.09C783.16,92,809.17,123.56,802,155c11.53-4.53,15.76-17.16,16.53-28.86,35.89,30.84-14.4,94.38-53.44,64.5,8.92-8.58,9.29-22.86,4.93-24.14.27,4.2-3.72,7.83-8.52,8.77,6.42-8.64,10-38.22-12-48.87,0,0,6.26,18.82-1.81,24.72-.67-40.61-31.07-50.51-49.8-46.27,0,0,13.58,14.45,15,27.24-48.52-26.07-102.25-14.24-110.45,3.17,6.64-1.89,15.4-.33,18.36,3.07-31.68,1.58-50.42,30.84-49.46,44.51,4.23-4.92,9.71-8.43,14-9.44-11.31,11.35-10.71,39.22-7,54.75-7.42-1.74-15,.28-21,8.05-2.89-26.36,3.74-57.44,19.47-77.58,0,0-6.82,2-18.41,21.8C559.66,161.64,569.26,144.14,583.63,132Zm-421,549.08c2.06-14.36,12.27-27.39,13.93-42.28-2.84-29,6.2-57.87,18.47-83.88q5.09-1.19,10.2-1.91c-6.31,14.44-26.71,64.3-14.51,78.72,5.83-29.16,13.42-55.19,36.47-79.95,31.6,1,62.73,13.34,88.25,32.39-31.62-11.41-74-6.09-93.57,27.92l.41.28c23.94-24.95,59.88-31.57,91.77-19.8,30.39,13.1,59.93,27.84,94.36,21.24-2.16,2.27-4.37,4.49-6.77,6.57l.25.43c20.5-10.57,33.92-30.67,50.3-46.29,5.77-5.9,14.47-8.87,20.93-14.25,13.25-11.33,22.12-6.6,36.78-.86a32.86,32.86,0,0,0-2.82-3.64A51.23,51.23,0,0,1,529,569.12a37,37,0,0,1-6.84-1.37c4.41,9.11,15,9.8,21.81,13.35,6.13,3,11.61,8.81,15.27,13.43-.39,5.63-13.66,0-16.13-.8-.11,1.52,4.89,5.66,6.73,6.29,8.89,3,10.76,3.85,17.78,9.11,9,8,8.07,13.8-8.57,8.47.51,8.29,13.43,9.6,20.07,14.93,4.42,2.49,7,10.25,8.57,12.4h-1.84c-12.28,1.92-15.19-2.15-31.14.61-10.64,2.13-20.34-10-18.88-14,1.19-3.16,9.77-4.23,12.37-5.2-7.36-22-27.94-14.72-28.31-31.29,8.13-1,12,2.06,15.94,1.62-.32-.83-5.85-10.41-12.36-12-11.72-3.91-38.09,4.23-43,12-15,23.95-35.37,44.44-65.42,60.65-6.08-6.94-8.68-17.36-7.82-28.21-5.64,3.48-7.81,10.85-9.11,16.93-12.81,5.13-129.47,25.69-175.24,7.52-18.79,17.13-42,22.39-50.82,22.13.51,11.71,13.91,19.91,22.07,20.2,12.36,21.61,38.87,36.69,51.61,39.74,30,7.19,101.6-1.27,116.58-18.85-32.55,5.86-73.28-4.34-63.8-7.81,51.25-18.79,92.44,4.19,122.38-7.81,8.65-3.47,14,9.44,40,9.76,20.81.26,28.61-5,35.89-10.06-.32,1.56-.62,3.14-.9,4.72-15.78,11.12-37.27,12.47-55.42,6.92-8.15-3.56-16.74-.08-24.51,2.6-8.13,2.72-17.39.46-25.81,3-45,12.53-88.82,34.93-136.85,28.5-28.32-3.8-49.38-24.61-66.91-45.52a36.79,36.79,0,0,0,1.91,6.05c-3.07,1.06-9.39.4-11-.44C173.22,704.61,165.45,691.35,162.64,681.12Zm611.12,433.31-51.33-79.09H700.16v79.09H570.94l-57.77-89.09H497.35v89.09H371.09l-12.92-45.51H281.35l-13.23,45.51H202l70.36-230.79h94.58l65.9,216.15V883.64h64.56v86.83h16.14L568,883.64H764.4c37.76,0,57.77,19.69,57.77,56.81v38.09c0,25.82-9.68,43.25-28.4,51.32L849,1114.43ZM884.53,758c-4.5,3.78-15,7.18-23.68,5a13.55,13.55,0,0,0,5.4,7.91C861.27,794,825,822.11,802.61,828A125.18,125.18,0,0,1,754.23,831a38,38,0,0,0,1.48-11.47c41.62,5.19,60.78-8.77,89.31-41.16,3.26-4.92,6.56-14,7.39-19.44-4.54,6.13-16,12-25.87,14.18-8.93,2-58.56-11.56-75.28-17.72A273.84,273.84,0,0,0,731.36,696c7.54-5,30-11.52,67.81-11.15-14-7.08-50-8.89-73.95-1.36q-1.92-3.72-3.94-7.38c26.39-2.85,54-6.24,80.29-1.09,18.18,6.46,35.67,25.76,49.72,39,0,0-6.25-11.34-27.88-32.21,9.91-5.57,21-10.16,32.45-10.35A554,554,0,0,1,875.38,727l2,2.3C884.5,737.31,886.59,746.57,884.53,758Z"/><path d="M336,190.77a19.45,19.45,0,0,0-6-.6h0c-7.84.39-8.48,7.88-3.16,16.41C332.62,216.31,356.4,198.79,336,190.77Z"/><path d="M375,97.29C388.4,105,394,89.38,386.77,82,376.93,71.88,361.3,89.48,375,97.29Z"/><path d="M206.63,163.65c21-12.7,34,37.64,50,2.24,4.32-9.57,5.61-17.54,14.51-26.55,6.86-7-2.92-16.61-10.6-15.65s-11.32-.4-16.18-7.92c-3.37-5.21-16.11-7.53-23.63-6s-17,6.75-21.09,15.08c-2.22,4.51-.42,9.46.25,13.72.78,4.89,4.61,8.9-3.06,13-2.66,1.42-3.8,5.5-2.14,8.54C196.24,163,203.8,165.36,206.63,163.65Z"/><path d="M267.15,115.78h0c9.93,4.63,21.29-3.74,32.13-4.71,5.41-.4,8.81-3.52,7.05-7.52-2.76-6.2-6.88-14.65-12.14-16.16-10.33-2.2-11.25,7-17.23,11.14-4.64,3.16-11.07,4-13.44,10.47C262.41,112,264.91,114.73,267.15,115.78Z"/><path d="M105.38,446.54h0c14.76-23.62-14-43.08-29.88-20.64-6.92,10-3.06,19.73,7,27.09C89.81,458.29,100,455.05,105.38,446.54Z"/><path d="M97.42,359.93c6.29,4.69,10,2.37,13.7.05,7.08-4.44,5-14.73-.21-17.76s-12.71,0-14.73,4.5C94.67,350.1,93.37,356.91,97.42,359.93Z"/><path d="M135.91,298.41h0c9.06-1.27,7.2-16,2-18.49a8.09,8.09,0,0,0-10.86,3.9C122.18,293.67,127.59,299.58,135.91,298.41Z"/><path d="M209.51,319c-3.36-1.13-10.08-3.4-12.53.88h0c-3.2,6.85,10.06,18.24,16.32,16.4,4.33-1.27,7.43-6.45,6.31-10C218.21,321.9,212.59,320.05,209.51,319Z"/><polygon points="296.85 1014.04 342.36 1014.04 319.76 934.96 296.85 1014.04"/><polygon points="635.6 1098.27 635.6 895.19 570.3 998.23 635.6 1098.27"/><path d="M744.71,938.51H700.16v42h44.55c9.68,0,12.91-3.23,12.91-12.59V951.1C757.62,941.74,754.39,938.51,744.71,938.51Z"/></svg>