<svg id="artwork" xmlns="http://www.w3.org/2000/svg" viewBox="0 0 1008 1296"><path d="M572.06,220.65c-10.81,6.75-14.67,21.23-11.46,33.06,0,0-.21-19.43,10.76-26.34,4.75,6.43,6.77,15.23,6.61,22.92-4.2-1.21-7.84-1.22-9.87,1.08-4.45,5-1.89,19.82,7.53,25C567,254.46,584,252.73,584,252.73,584.72,241.06,581.24,228.43,572.06,220.65Z"/><path d="M603.35,649.85c-6.12,2.76-9.89,7.77-12,17.57,5.67-7.91,8.76-9.65,17.37-11.73,6.39-1.54,10.87-.1,15.64-6.15C613.9,650.17,609.46,647.08,603.35,649.85Z"/><path d="M511,546.79c6.1.9,11.34,3.93,14.75,5.64a22.44,22.44,0,0,0-10.41-11.29c-4.41-2.34-7.81-1.83-12.37-1.08-6.75,1.68-11.94,5.86-17.82,9C491.27,550.47,503.92,545.74,511,546.79Z"/><path d="M862.76,425.61c-1.93,6.66,2.5,18.53,13,14.23,3.87-1.58,10-4.54,9.1-12.5-.68-6.31-.12-23.39-10.15-21.17C867.83,407.69,864.48,419.64,862.76,425.61Z"/><path d="M894.87,459.89h0c11.22,1.24,13.41-19.18,1.74-18.39C887.31,442.13,884.55,458.76,894.87,459.89Z"/><path d="M327.47,198.44c-5.24,8.77-4.2,12.51,5,18.07,8.73,5.28,11.54,4.77,16.36-2.92C359.91,196.67,339.22,178.21,327.47,198.44Z"/><path d="M111.84,450h0c8.75-2.5,10.06-17.09,3-18.77-3.09-.73-6.35,1.06-9.47,2.37C94.27,438.2,98.43,453.8,111.84,450Z"/><path d="M106.44,601.67c-5.42,6.28-3.38,21.23,5.89,23.89,13.83,4,24.45-16.58,15.59-26.85C123.72,593.85,109.69,597.91,106.44,601.67Z"/><path d="M157.05,665.83c4.52,15.55,11.95,25.53,26.8,29.32v429.71H867.06V764.51l.36-.5c22.53-5.23,29-27.41,27.29-48,8.49-3.93,15.69-7,21.39,3.71,9.95,18.67,20-2.12,19.9-11.74-.12-12.6-11.44-9.63-8-23.11,5.42-21.1-36.73-4.2-17.39-39.63,10.44-19.14-6.32-27.65-13.52-30.46-26.74-10.45-6.35-24.58-25.47-30.8-10-3.26-20.28-1.71-24.74-28.88-3-18.27,28.32-8.13,23.33-32.31-7.47-36.16,17.24-37.26,15.72-52-2.5-24.21-41.33-30.75-31.69-48.55,12.46-23-11.44-40,9.45-41.69,12.55-1,8-15.56,7.39-19.45-2.54-16.25-19.28-13.48-25.64-.16-4.46,9.27-7.46,30.56-20.26,37.22a88.18,88.18,0,0,0-8.69-33.66,97,97,0,0,1,10.13,7.73c4.94-18.82-3.28-37.83-16.68-51.09,6.61-12.44,12-25.69,14.26-39.7-.64-10.54-6.06-20.37-10.16-29.84,7.14-6.47,15.81-11.07,23.6-16.54-6.47-21.7-17.3-41.57-30.57-59.74,41.81-23,43.62-71,.1-93.69a53.84,53.84,0,0,1,1.13,34.24c-.21-40-40.44-66-77.87-59,5.08,3.26,9.84,6.58,13.22,11.36-30.28-18.49-68.5-11.77-100.09.6,14.36,1.61,31.56,5.61,43.32,15.74C650.33,71,598.5,79.25,571.47,106.88a9.91,9.91,0,0,1-4.71-1.43C543,88.38,543.51,102.72,527.9,100c-10.89-2.6-19.19,1.74-27.49,8.11-5.2,4-11.68,6.25-17.22,9.85-6.33,4.12-12.22,5-17.94-.65-20.55-14.39-.37-22-25.47-32.31-8.4-3.25-17.1-6-25-10.2-30.2-17.61-23.2,24.89-42.66,13.9-7.9-4-10.29,7.58-13.06,13.27-15.87-3.27-22.63-33-34.51-6.34C311.09,84.89,286.18,87,283.62,107c-1,5.21-5.64,2.64-8.47,11.15-1.86,5.59,8.39,8.16,12.42,12.42-6.8,2.32-18.86,1-18.23,11.12.26,4.91,2,7,8.19,7.86,11.65,1.66,18.47,8.12,24.94,9.91,3.66,1,12,1.85,15.21-.26,5-3.3,9.95-17.87,22.39-8.31,6.41,4.84,12.51,5.3,19.84,3.22,22.23-3.85-7.06,22.12,12.57,49.13,5.62,11.25-20,5.12-8,22.22,4.3,6.83,11.75,14.35,9.1,23-7.84,19.13,4.79,15.32,18.59,15.86-1.62,7.55-5.35,12.45-12.48,14.15-14.47,3.46-31.15,8.63-37.71,21.74-10.1,19.44-151.58,25.66-154.8,5.88-1.79-11-19.82-10-20.7-18.63-1.73-16.87-23.56-15.6-23.42-6.46.16,11.07-10.44,17.12-14.49,22.88-13.52,19.68,31.77,46.58,13.93,52.73-8.66,3-18.7,1.63-25.32-6-7.07-8.18-19.59-13.76-21-2.54-1.7,13.63,5,9.75,7.44,21.37,2.77,13,14.78,4.24,25.07,12.62,14.18,8.92-14.51,26.49,15.92,47.2,2,1.39,2.42,2.88,2.07,3.65-15.11,30.3,26.71,46.23-9.58,60.27-27.3,11.2-14.6,30.49-28.06,33.39-10.18,2.19-10.3,19.12-6.33,23.74,13.29,15.48,5.44,25.15,11.91,33.36,12.89,16.37,29,6.74,27.13,24-.88,7.83,8.13,9.11.36,27.79-3.29,8,4.38,26.86,14.91,30.4M742.29,440.41c-38.19-.46-84-24.23-82.23-67.24,4.51,21.25,20.21,39.05,30.12,42.23a55.6,55.6,0,0,1-1.73-14c7.46,21.48,32,32.71,48.92,32.69,0,0-3.06-18.44,2.89-34.49,2,9.25,5.64,17.49,13.88,22.56-1-3.11-.55-7.14.21-8.46,5.92,13.56,28.32,19.16,34.28,19.59,3.4-13.1,3.81-37.46-3.26-49.21,5.42,3.59,9.38,18.43,9.3,26.51-.09,9.8-.45,19.86-3.62,29.19-18-1.16-37.08-7.51-49.58-20.85A97.44,97.44,0,0,0,742.29,440.41ZM729.15,772.53s10.4-16,11.79-34.47c4.87,28.3,6.84,56.08,3.94,63.81-4.64,12.34-31.11,24.56-40.51,27.81-30,12.11-63.38-8.29-83-30.73,12.94-8.74,25.37-15.4,39.33-18.72a61,61,0,0,0,18.36,9.67c-.35,3.41-2.83,7.63-6.5,4.88l-.29.41c3,4.68,9.5,1.18,10.48-4.16C697.1,690.72,580.24,543.3,503.44,519.88c0,0,4.57,3.21,7.86,6-5-.78-10-1.46-14.91-2.54v.09a26.76,26.76,0,0,0-15.92.41c.45-9.86,6.59-17.88,6.59-17.88a83.41,83.41,0,0,1,49.09-7.33,351.22,351.22,0,0,1,34.76,16.48c1.71,2.07,5.33,6.84,5.88,10.47-6.21-.53-16.41,0-21.56,5.25,10-2.82,23-.53,33.19,4.53a31.08,31.08,0,0,0-8.65-15.3,361.2,361.2,0,0,1,33.65,22.06c1.25,3.18,4.47,11.72,4.82,16.28-7.23-1.15-17.73-2-24.71,3.49,12-2.46,25.6,2.53,37.16,9.33A58.73,58.73,0,0,0,621.25,548a362.46,362.46,0,0,1,34.4,30.53c1.45,5.15,4.91,18.19,4.37,23.47-7.63-2.8-20.42-3.33-29.52.54,13.52-.42,29.1,7,40.29,17.24,0,0-.35-20-7.13-32.87a344.72,344.72,0,0,1,41.15,54.15c.68,4.63,1.93,16.35-1,26.12-7.63-5-22-9.16-32.9-7.74A75.21,75.21,0,0,1,708.8,686a57.19,57.19,0,0,0,2.47-33.93,319.9,319.9,0,0,1,15.7,32c4,9.66,7.61,22.62,10.6,36.47-.23,4.14-1.53,19.46-8.36,31-6.68-7.64-17.68-19.81-30.79-20.29C713.33,739.3,722.89,755.05,729.15,772.53Zm-86.6-84.32c10.17,1.32,17.06,9.8,17.68,19.89-3.93,12.95-8.38,18.19,4.57,27.15,4.75,8.63-4.23,31.44-12.14,35.93-17.44,7.22-52.4,32.49-62.65,4.65,2.2-1.18,7.39-8.37,13.45-12.16,15-6.63,22.89-16.16,30.38-25.6-4.4,1-17.53,9.2-22.14,13.13-7,6-29.7,13-36.13,9.11-3.29-2-11.79-5-14-11.06,4.92-12.7,24.55-29.25,34.54-33.53,6.4-2.74,12.21-8,13.83-13.51-13.59,9.34-32.68,15.28-45.48,23.61-3,1.62-13.61,5.75-18.3,6.42-2.24.32-16.62-9.54-16-17,.32-4.17,5.83-11.69,8.66-14.12,8.86-8.63,45.14-22.49,44-34.33C570,680,542.61,682.85,528.05,697.49c-6.77-4.9-14-13.28-15.69-22.61-3.77,4.43-2.11,14.06-.11,17.93a106,106,0,0,0-2,13.22c-2.15-3.24-4-6.48-5.38-8.9-1.17-4.93-.16-10,.48-15.27a145.94,145.94,0,0,1,3.43-16.13c12.67-12.63,31.66-17,47.06-26.3,7.09-3.68,12.05-10.45,20.56-11.76,9.49-1.64,21.4-2.78,30.24,1.45,2.28,4.76,4.13,9.82,7,14.57,5.87,2,12.46,2.23,18.28,3.37q6.28,10.23,11.92,20.83c-.17,4.15-.72,8.68-1.06,12.94-6.23-.3-13.85,6-15.06,12.3C629.58,689.36,640,687.87,642.55,688.21Zm-126.78,37.2c1.28,13.44,10.52,25.94,22.22,32.38-7.25,2.12-18.84-.65-22.78-5.41-9.71-13.86-21-25.46-15.22-43.74C503.9,715.46,508.75,722.41,515.77,725.41Zm-133-142.92a105.42,105.42,0,0,1-19.93-4.43c1.54-27.22,1.34-46.68-11.9-64,38.55-2.58,76.16-16.41,94.06-34.15-9.33,24.26-56.08,53.2-66.05,56.78-3.84-7-8.91-13.56-15.64-18l-.35.36C377.15,536.74,382.12,560.3,382.76,582.49ZM273.87,366.23a141.74,141.74,0,0,1,9.51-11.77c33-36.23,71.09-37.89,107.18-22.06a32.63,32.63,0,0,1,3.54,11.14c-4.54-1.32-15.3-.44-21.69,4,12.76-.57,19.44-.48,31.64,6.26,0,0-3-12.51-7-18.37a194,194,0,0,1,35.24,23.12c1.08,2,2.86,6.69,3.26,16-6-1.92-17.13-1.84-24.65,1.79,13-.41,27.1,4.13,35.14,11.79,0,0-.24-13.15-6.94-23.85a303.59,303.59,0,0,1,30.41,30.77,44.21,44.21,0,0,1,2.4,20.07c-6.42-2.95-18.45-4.52-26.62-2.16,11.75.84,24.72,8.27,33.67,17.59a55,55,0,0,0-2.32-26.95,326.1,326.1,0,0,1,32.51,48.43c-15.22.65-31.12,4.87-43.6,13.77C427.3,405,351.26,322.74,273.87,366.23Zm-10.64,80.5c11.34-8.75,35.21-14.16,44.57-13.7-46.3,11.24-77.71,50.05-98.57,84.86-3,.3-5.94.71-8.89,1.23,13.5-25.17,31.55-47.25,52.87-66.34l-.91-1.19c-6.29,4.66-12.76,9.65-18.55,14.86-3-26.38,5.25-55.78,22.91-75.58,22-23.74,57.39-32.41,88.48-24.58C309.91,363.63,261.5,383.12,263.23,446.73ZM134.88,586.35c-23.84-7.2-7.59-19.42-23.11-39,37.82-39.95,72.43-82.83,107.42-125.26-2.85,11.33-3.38,43.73-.61,58.95-29.93,33-55.35,69.68-81,106.05C137.62,587.13,135.87,586.65,134.88,586.35ZM422,337.45c25.7-5.52,52.43-3.93,78.26.2,11.29,74.68,93,120.74,164.36,107.46C565.87,470.24,493,398.29,488.08,344.67c-11.39-2.67-40.78-3.26-57.38-.36q-4.81-3.44-9.81-6.6ZM635.27,300.6c20.58-23.13,55.75-18.57,81.58-7.33-29-10-71.12-3.4-83.4,19.91-13.57-27.24-18-97.18,10.8-128.55C623.76,217.86,624.56,263.81,635.27,300.6Zm56.64,34.51c3.25-.19,7.26-.35,10.48-.33,1.16,4.25,2.91,4.77,2.91,4.77,0-1.68-.09-2.9,0-4.75,17.61.34,35.35,1.95,52.48,6.22l1.08-1.27c-15.08-5.48-41.24-7.92-53.62-8.39,0-2.17.08-4,.26-6.48-1.51.63-2.89,4-3.16,6.31-3.2-.2-7.35-.24-10.59-.23a39,39,0,0,1,.41-9.28c-2.47,1.95-3.11,6-3.31,9.36a62.63,62.63,0,0,0-11.95,1.37,15.89,15.89,0,0,1,1.79-5.61c10.59-20.14,71.51,7.95,95.06,10.05,0,0-10.31,4.24-14.81,11.28-9.75-3.71-36.9-7.49-58.37-1.38-12.95.82-20.92-3.26-23.13-9.37a55.88,55.88,0,0,1,11.64-2c1.49,5.85,3.8,7.1,3.8,7.1C692.45,340,692.11,337.55,691.91,335.11Zm-28.44,68.07a53.22,53.22,0,0,0,2.28,5c-37.55-7.78-50.35-49.48-56.74-82.72,0,0-8.63,8-11.35,23.67-20.51-31.72-13.8-75.64-1.47-109.45-8.29,27.43-9.49,66.59.9,89.6,3.61-6.35,12-10.68,14.94-11.18C620.81,362.44,638.55,393.65,663.47,403.18ZM578.37,295c-15.32-5.3-21.59-25.31-23.11-40.16-2.88-33.29,16.44-66.79,42.43-26.44h0C585.26,247.61,579.55,271.4,578.37,295ZM538.15,314.6c8.61-6.38,17.4-12.62,26.41-18.42,3.84,3.61,8.4,6.28,13.69,6.92.17,9.82,1,19.18,3.34,28.54-7.15,27.5-10.43,70.93-6.24,91.94a132.34,132.34,0,0,1-27-19.11c0-19.18,12.17-55.56,17.58-73.14-17.77,17.51-32.22,33.17-46.48,33.88a100.89,100.89,0,0,1-8.2-28.35C519.39,328.6,528.9,321.67,538.15,314.6Zm-9.5,174.69a89.34,89.34,0,0,0-9,.63c-3.13-7.3-9.09-20.87-14.38-31.12a67.93,67.93,0,0,1,7.24-.81C518.29,468.4,523.79,478.69,528.65,489.29ZM702.24,620.11C731,567.75,736.43,528,733.86,499.28c14.86,50.85,7.36,66.69-22.44,134.6Q707,626.88,702.24,620.11Zm81.63-173.53c3.06.56,6.13,1,9.17,1.24,11.59,15.64,21.21,33.13,29.61,50.71.69,20.72-3.67,41.58-8.29,61.75a24.09,24.09,0,0,0-7.37-4.55c17.1,19.13,35.06,55.93,46.39,84.26a64.85,64.85,0,0,0-18.59,3.23c-17-52.74-31-82.85-58.63-111.06,0,0,17.69,7,26.8,16.62,3.89-10.16,5.51-32.39,6.91-49.83C803.48,483.72,792.4,458,783.87,446.58ZM820.32,360a41.66,41.66,0,0,0-9.12-3.59c-2.35-4.15-7.51-6.75-7.51-6.75,14.77,20.76,18.71,49.72,9.76,73.59a55.35,55.35,0,0,0-13.19-8.68c-.09-.73-.17-1.46-.27-2.19a19.92,19.92,0,0,1,10,3.06c1.69-7.18,3.36-22.07-.6-34.59a19.41,19.41,0,0,1,5.4,6.94c1.26-10.22-8.9-34.81-20.7-46.1,0,0,14,2.71,20.52,8.84-.39-6.18-2.38-13.51-4.8-20C816.35,339.15,820.61,349.42,820.32,360Zm-6.07-79.62c-1.71,12-6.31,23.79-10.83,35.1-.39-.31-.79-.61-1.19-.9,1.62-9.61-.22-33.1-4.55-49.61a21.8,21.8,0,0,1,1.05-6.55,15.55,15.55,0,0,0,8.84.53C809.87,266.13,812.71,273.1,814.25,280.37Zm.36-76.52a192.34,192.34,0,0,1,10.53,24.52c-6.76-1.29-16.46-1-28.6,1.83-.27-7.5-3.74-11.69-3.74-11.69,1.37,11.61.18,24.07-7.86,32.9,9,10.1,11,44.22,9.77,59.13-7.87,5.71-22.53,8.14-30.6,3.26-9.61-5.79-16.86-10.48-28-5.47-3.35-3.66-5-8.84-5.33-13.8,4.19-4.13,9.73-7,15.16-9.3,8.54,7.14,14,6.88,14,6.88-4.71-3.93-9.66-8.23-11.88-14-8.83,2.91-17.32,6.37-24,13.26-15.33-7.91-35-13.05-53.18-11.86-2-11.33-14.44-16.06-15.72-34,4.89-17.83,50.54-28.95,60.37-27,4.78.93,14.88,4.51,25.14,9.51-16.08-4.58-30.52-3.37-44.88,3.88,3.5,1.89,9.2,6.92,9.2,6.92,8.55-1.7,25.47-1.29,33.41,7.39-4.76,6.63-20.6,7.37-32-1.68,1.86,9.89,11.26,12.53,18.61,13.93-3.06,1.56-6,1.54-11,1.43,5.72,7,30.22,4,44.52-1.87a15.61,15.61,0,0,1,3,11.42c9.44-5.86,10.67-16.09,10.47-22.15,11.14-5.1,12.72-20.56,6.56-30.07,0,0,1.18,6.18-1,11.4-45.43-28.49-58.41-33.57-101-17.36,1.9-19.23,46.72-22.11,50.87-26.13,4.31-4.17-1.32-21.08-11.92-28.72,23,2.85,46.08,13.09,64.55,24.2a49.73,49.73,0,0,0,19.12-2.1A179.41,179.41,0,0,1,814.61,203.85Zm-231-97.38c33-27.32,79.83-23.26,118.6-12.26,0,0-8-14.45-29.67-25.79,41.13-11.62,82.05,5.34,104.93,41.1,0,0-.45-9.08-13.09-24.23-5.12-6.13-7.91-13.87-13-20.09C783.16,66.47,809.17,98,802,129.42c11.53-4.53,15.76-17.16,16.53-28.86,35.89,30.84-14.4,94.39-53.44,64.5,8.92-8.58,9.29-22.86,4.93-24.14.27,4.21-3.72,7.84-8.52,8.77,6.42-8.64,10-38.22-12-48.86,0,0,6.26,18.82-1.81,24.71C747,84.93,716.62,75,697.89,79.27c0,0,13.58,14.45,15,27.24-48.52-26.07-102.25-14.23-110.45,3.18,6.64-1.9,15.4-.34,18.36,3.06-31.68,1.58-50.42,30.85-49.46,44.51,4.23-4.91,9.71-8.43,14-9.43-11.31,11.34-10.71,39.21-7,54.74-7.42-1.74-15,.28-21,8.05-2.89-26.35,3.74-57.43,19.47-77.58,0,0-6.82,2-18.41,21.8C559.66,136.08,569.26,118.57,583.63,106.47Zm-421,549.08c2.06-14.36,12.27-27.38,13.93-42.28-2.84-28.95,6.2-57.87,18.47-83.88q5.09-1.18,10.2-1.91c-6.31,14.44-26.71,64.3-14.51,78.72,5.83-29.16,13.42-55.19,36.47-80,31.6,1,62.73,13.35,88.25,32.39-31.62-11.41-74-6.09-93.57,27.92l.41.28c23.94-24.94,59.88-31.57,91.77-19.8,30.39,13.1,59.93,27.84,94.36,21.24-2.16,2.27-4.37,4.49-6.77,6.57l.25.44c20.5-10.58,33.92-30.68,50.3-46.3,5.77-5.9,14.47-8.86,20.93-14.24,13.25-11.34,22.12-6.61,36.78-.87a33.86,33.86,0,0,0-2.82-3.64A51.23,51.23,0,0,1,529,543.55a37.11,37.11,0,0,1-6.84-1.36c4.41,9.11,15,9.79,21.81,13.34,6.13,3.05,11.61,8.81,15.27,13.43-.39,5.63-13.66,0-16.13-.8-.11,1.52,4.89,5.67,6.73,6.3,8.89,3,10.76,3.84,17.78,9.11,9,8,8.07,13.79-8.57,8.46.51,8.29,13.43,9.6,20.07,14.93,4.42,2.49,7,10.25,8.57,12.4h-1.84c-12.28,1.93-15.19-2.15-31.14.61-10.64,2.13-20.34-10.05-18.88-14,1.19-3.16,9.77-4.24,12.37-5.21-7.36-22-27.94-14.72-28.31-31.29,8.13-1,12,2.06,15.94,1.62-.32-.83-5.85-10.41-12.36-12-11.72-3.9-38.09,4.23-43,12-15,24-35.37,44.45-65.42,60.66-6.08-6.95-8.68-17.36-7.82-28.21-5.64,3.47-7.81,10.85-9.11,16.92-12.81,5.13-129.47,25.69-175.24,7.52-18.79,17.13-42,22.39-50.82,22.13.51,11.71,13.91,19.91,22.07,20.2,12.36,21.61,38.87,36.69,51.61,39.74,30,7.19,101.6-1.27,116.58-18.85-32.55,5.86-73.28-4.33-63.8-7.81,51.25-18.79,92.44,4.19,122.38-7.81,8.65-3.46,14,9.44,40,9.76,20.81.26,28.61-5,35.89-10.06-.32,1.57-.62,3.14-.9,4.72-15.78,11.12-37.27,12.47-55.42,6.92-8.15-3.56-16.74-.08-24.51,2.61-8.13,2.72-17.39.46-25.81,3-45,12.53-88.82,34.93-136.85,28.5-28.32-3.8-49.38-24.61-66.91-45.52a36.79,36.79,0,0,0,1.91,6c-3.07,1.06-9.39.4-11-.43C173.22,679,165.45,665.78,162.64,655.55Zm611.12,433.31-51.33-79.08H700.16v79.08H570.94l-57.77-89.09H497.35v89.09H371.09l-12.92-45.51H281.35l-13.23,45.51H202l70.36-230.79h94.58l65.9,216.15V858.07h64.56V944.9h16.14L568,858.07H764.4c37.76,0,57.77,19.69,57.77,56.81V953c0,25.82-9.68,43.25-28.4,51.32L849,1088.86ZM884.53,732.38c-4.5,3.78-15,7.19-23.68,5a13.55,13.55,0,0,0,5.4,7.9c-5,23.14-41.29,51.22-63.64,57.08a125.18,125.18,0,0,1-48.38,3.06A38,38,0,0,0,755.71,794c41.62,5.2,60.78-8.77,89.31-41.16,3.26-4.92,6.56-14,7.39-19.44-4.54,6.13-16,12-25.87,14.18-8.93,2-58.56-11.56-75.28-17.72a273.84,273.84,0,0,0-19.9-59.41c7.54-5,30-11.52,67.81-11.15-14-7.07-50-8.89-73.95-1.36q-1.92-3.72-3.94-7.38c26.39-2.85,54-6.24,80.29-1.09,18.18,6.47,35.67,25.77,49.72,39,0,0-6.25-11.34-27.88-32.21,9.91-5.57,21-10.16,32.45-10.34a553.8,553.8,0,0,1,19.52,55.48l2,2.3C884.5,711.74,886.59,721,884.53,732.38Z"/><path d="M336,165.2a19.45,19.45,0,0,0-6-.6h0c-7.84.39-8.48,7.88-3.16,16.41C332.62,190.75,356.4,173.22,336,165.2Z"/><path d="M375,71.72c13.43,7.68,19-7.9,11.8-15.33C376.93,46.32,361.3,63.91,375,71.72Z"/><path d="M206.63,138.08c21-12.69,34,37.65,50,2.24,4.32-9.57,5.61-17.54,14.51-26.55,6.86-6.94-2.92-16.6-10.6-15.65s-11.32-.4-16.18-7.92c-3.37-5.21-16.11-7.52-23.63-6S203.7,91,199.6,99.28c-2.22,4.51-.42,9.46.25,13.72.78,4.9,4.61,8.9-3.06,13-2.66,1.41-3.8,5.49-2.14,8.53C196.24,137.39,203.8,139.79,206.63,138.08Z"/><path d="M267.15,90.21h0c9.93,4.63,21.29-3.74,32.13-4.7,5.41-.41,8.81-3.53,7.05-7.53-2.76-6.2-6.88-14.65-12.14-16.16-10.33-2.2-11.25,7-17.23,11.14-4.64,3.16-11.07,4-13.44,10.48C262.41,86.47,264.91,89.16,267.15,90.21Z"/><path d="M105.38,421h0c14.76-23.62-14-43.08-29.88-20.64-6.92,10-3.06,19.73,7,27.1C89.81,432.72,100,429.48,105.38,421Z"/><path d="M97.42,334.36c6.29,4.69,10,2.37,13.7.05,7.08-4.43,5-14.73-.21-17.76s-12.71,0-14.73,4.5C94.67,324.53,93.37,331.35,97.42,334.36Z"/><path d="M135.91,272.85h0c9.06-1.27,7.2-15.95,2-18.49a8.09,8.09,0,0,0-10.86,3.9C122.18,268.1,127.59,274,135.91,272.85Z"/><path d="M209.51,293.44c-3.36-1.13-10.08-3.4-12.53.88h0c-3.2,6.85,10.06,18.24,16.32,16.4,4.33-1.27,7.43-6.45,6.31-10C218.21,296.33,212.59,294.48,209.51,293.44Z"/><polygon points="296.85 988.47 342.36 988.47 319.76 909.39 296.85 988.47"/><polygon points="635.6 1072.7 635.6 869.62 570.3 972.66 635.6 1072.7"/><path d="M744.71,912.94H700.16v42h44.55c9.68,0,12.91-3.22,12.91-12.58V925.53C757.62,916.17,754.39,912.94,744.71,912.94Z"/><path d="M219,1185.67h44.11v32.81c0,16.07-8.3,24.1-25,24.1H208.77c-16.61,0-24.92-8-24.92-24.23v-51.2c0-16.2,8.31-24.23,24.92-24.23H238c16.75,0,25,8,25,24.1a5.93,5.93,0,0,1-.13,1.77l-22.33,2.72v-1c0-6.27-2.32-8.44-9.13-8.44H215.44c-6.81,0-9.12,2.17-9.12,8.57v44.12c0,6.4,2.31,8.58,9.12,8.58H231.5c6.81,0,9.13-2.18,9.13-8.44v-10.08H219Z"/><path d="M345.46,1219h-35.4l-6.94,22.19h-23l31.32-96.94h32.81l31.18,96.94h-23ZM339.61,1200l-11.85-37.85L316.06,1200Z"/><path d="M391.89,1218.48c0-1.36,0-1.49.14-1.76l22.33-2.73v1c0,6.26,2.31,8.44,9.12,8.44h16.34c6.81,0,9.12-2.18,9.12-8.58v-2.45c0-5.31-1.91-6.67-10.76-8l-22.6-3.26c-16.88-2.45-23.28-8.44-23.28-22.33v-11.58c0-16.2,8.31-24.23,25.05-24.23H446c16.74,0,25.05,8,25.05,24.1a4.63,4.63,0,0,1-.14,1.77l-22.33,2.72v-1c0-6.27-2.31-8.44-9.12-8.44H424.16c-6.94,0-9.39,2.31-9.39,8.57v2c0,5.44,1.63,6.53,10.89,7.89l22.6,3.27c17,2.45,23.15,8.44,23.15,22.6v11.85c0,16.2-8.31,24.23-24.92,24.23H416.81Q391.9,1242.58,391.89,1218.48Z"/><path d="M529.68,1201.74h-9.53v39.48H497.68v-96.94h22.47v38.26h9.39l26-38.26h26.14l-32.27,47.79,34.31,49.15H557.45Z"/><path d="M627.57,1163.48V1182H668v19.19H627.57V1222h46.16v19.2H605.1v-96.94h68.63v19.2Z"/><path d="M768.9,1163.48H740.44v77.74H718v-77.74H689.52v-19.2H768.9Z"/><path d="M787.55,1218.48c0-1.36,0-1.49.13-1.76L810,1214v1c0,6.26,2.32,8.44,9.12,8.44h16.34c6.81,0,9.13-2.18,9.13-8.58v-2.45c0-5.31-1.91-6.67-10.76-8l-22.6-3.26c-16.89-2.45-23.28-8.44-23.28-22.33v-11.58c0-16.2,8.3-24.23,25-24.23H841.6c16.75,0,25,8,25,24.1a5,5,0,0,1-.13,1.77l-22.33,2.72v-1c0-6.27-2.32-8.44-9.13-8.44H819.82c-7,0-9.4,2.31-9.4,8.57v2c0,5.44,1.63,6.53,10.89,7.89l22.6,3.27c17,2.45,23.15,8.44,23.15,22.6v11.85c0,16.2-8.3,24.23-24.92,24.23H812.46Q787.55,1242.58,787.55,1218.48Z"/></svg>