<svg id="artwork" xmlns="http://www.w3.org/2000/svg" viewBox="0 0 1008 1296"><path d="M572.06,279.54c-10.81,6.75-14.67,21.23-11.46,33.06,0,0-.21-19.43,10.76-26.34,4.75,6.43,6.77,15.23,6.61,22.92-4.2-1.21-7.84-1.22-9.87,1.08-4.45,5-1.89,19.83,7.53,25C567,313.35,584,311.62,584,311.62,584.72,300,581.24,287.32,572.06,279.54Z"/><path d="M603.35,708.74c-6.12,2.77-9.89,7.77-12,17.57,5.67-7.91,8.76-9.65,17.37-11.73,6.39-1.54,10.87-.1,15.64-6.15C613.9,709.06,609.46,706,603.35,708.74Z"/><path d="M511,605.68c6.1.9,11.34,3.93,14.75,5.64A22.42,22.42,0,0,0,515.36,600C511,597.69,507.55,598.2,503,599c-6.75,1.69-11.94,5.86-17.82,9C491.27,609.37,503.92,604.63,511,605.68Z"/><path d="M862.76,484.5c-1.93,6.66,2.5,18.53,13,14.23,3.87-1.58,10-4.54,9.1-12.5-.68-6.31-.12-23.39-10.15-21.17C867.83,466.58,864.48,478.53,862.76,484.5Z"/><path d="M894.87,518.78h0c11.22,1.23,13.41-19.19,1.74-18.4C887.31,501,884.55,517.65,894.87,518.78Z"/><path d="M327.47,257.34c-5.24,8.76-4.2,12.5,5,18.06,8.73,5.28,11.54,4.77,16.36-2.92C359.91,255.56,339.22,237.1,327.47,257.34Z"/><path d="M111.84,508.85h0c8.75-2.5,10.06-17.09,3-18.77-3.09-.73-6.35,1.07-9.47,2.37C94.27,497.09,98.43,512.69,111.84,508.85Z"/><path d="M106.44,660.56c-5.42,6.28-3.38,21.23,5.89,23.89,13.83,4,24.45-16.58,15.59-26.84C123.72,652.74,109.69,656.8,106.44,660.56Z"/><path d="M157.05,724.72c4.52,15.56,11.95,25.53,26.8,29.33v429.7H867.06V823.41l.36-.51c22.53-5.23,29-27.41,27.29-48,8.49-3.92,15.69-7,21.39,3.71,9.95,18.67,20-2.12,19.9-11.74-.12-12.6-11.44-9.63-8-23.11,5.42-21.1-36.73-4.2-17.39-39.63,10.44-19.14-6.32-27.65-13.52-30.46-26.74-10.45-6.35-24.58-25.47-30.8-10-3.26-20.28-1.71-24.74-28.88-3-18.27,28.32-8.13,23.33-32.31-7.47-36.16,17.24-37.26,15.72-52-2.5-24.21-41.33-30.75-31.69-48.55,12.46-23-11.44-40,9.45-41.69,12.55-1,8-15.56,7.39-19.44-2.54-16.25-19.28-13.49-25.64-.17-4.46,9.28-7.46,30.56-20.26,37.23a88.08,88.08,0,0,0-8.69-33.66,95.64,95.64,0,0,1,10.13,7.73c4.94-18.83-3.28-37.84-16.68-51.1,6.61-12.44,12-25.69,14.26-39.7-.64-10.54-6.06-20.37-10.16-29.84,7.14-6.46,15.81-11.07,23.6-16.54-6.47-21.7-17.3-41.57-30.57-59.74,41.81-23,43.62-71,.1-93.69a53.84,53.84,0,0,1,1.13,34.24c-.21-40-40.44-66-77.87-59,5.08,3.26,9.84,6.58,13.22,11.36-30.28-18.49-68.5-11.76-100.09.6,14.36,1.61,31.56,5.61,43.32,15.74-36.57-13.6-88.4-5.39-115.43,22.24a9.91,9.91,0,0,1-4.71-1.43c-23.78-17.07-23.25-2.73-38.86-5.49-10.89-2.6-19.19,1.74-27.49,8.11-5.2,4-11.68,6.25-17.22,9.85-6.33,4.12-12.22,5-17.94-.65-20.55-14.39-.37-21.94-25.47-32.31-8.4-3.25-17.1-6-25-10.19-30.2-17.61-23.2,24.88-42.66,13.89-7.9-4-10.29,7.59-13.06,13.27-15.87-3.27-22.63-33-34.51-6.34-13.44-10.7-38.35-8.62-40.91,11.43-1,5.21-5.64,2.64-8.47,11.15-1.86,5.59,8.39,8.16,12.42,12.42-6.8,2.32-18.86,1.05-18.23,11.12.26,4.91,2,7,8.19,7.86,11.65,1.66,18.47,8.13,24.94,9.91,3.66,1,12,1.85,15.21-.25,5-3.31,9.95-17.88,22.39-8.32,6.41,4.84,12.51,5.3,19.84,3.23,22.23-3.86-7.06,22.11,12.57,49.12,5.62,11.25-20,5.12-8,22.22,4.3,6.83,11.75,14.35,9.1,23-7.84,19.13,4.79,15.32,18.59,15.87-1.62,7.54-5.35,12.44-12.48,14.14C365.23,340.82,348.55,346,342,359.1c-10.1,19.44-151.58,25.66-154.8,5.88-1.79-11-19.82-10-20.7-18.63-1.73-16.87-23.56-15.59-23.42-6.46.16,11.07-10.44,17.12-14.49,22.88-13.52,19.68,31.77,46.58,13.93,52.74-8.66,3-18.7,1.62-25.32-6-7.07-8.18-19.59-13.76-21-2.54-1.7,13.63,5,9.75,7.44,21.37,2.77,13,14.78,4.24,25.07,12.62,14.18,8.92-14.51,26.49,15.92,47.2,2,1.4,2.42,2.88,2.07,3.65-15.11,30.31,26.71,46.23-9.58,60.27-27.3,11.2-14.6,30.5-28.06,33.39-10.18,2.19-10.3,19.12-6.33,23.74,13.29,15.49,5.44,25.15,11.91,33.36,12.89,16.37,29,6.74,27.13,24-.88,7.83,8.13,9.11.36,27.79-3.29,8,4.38,26.87,14.91,30.4M742.29,499.3c-38.19-.46-84-24.23-82.23-67.24,4.51,21.25,20.21,39.05,30.12,42.23a55.55,55.55,0,0,1-1.73-14c7.46,21.48,32,32.71,48.92,32.7,0,0-3.06-18.45,2.89-34.5,2,9.25,5.64,17.49,13.88,22.56-1-3.11-.55-7.14.21-8.46,5.92,13.57,28.32,19.17,34.28,19.59,3.4-13.1,3.81-37.46-3.26-49.21,5.42,3.59,9.38,18.43,9.3,26.51-.09,9.8-.45,19.86-3.62,29.19-18-1.16-37.08-7.51-49.58-20.85A97.44,97.44,0,0,0,742.29,499.3ZM729.15,831.42s10.4-16,11.79-34.47c4.87,28.31,6.84,56.08,3.94,63.81-4.64,12.34-31.11,24.56-40.51,27.81-30,12.11-63.38-8.29-83-30.73,12.94-8.73,25.37-15.4,39.33-18.72a61.29,61.29,0,0,0,18.36,9.68c-.35,3.41-2.83,7.62-6.5,4.87l-.29.41c3,4.68,9.5,1.18,10.48-4.16,14.3-100.31-102.56-247.73-179.36-271.15,0,0,4.57,3.22,7.86,6-5-.78-10-1.46-14.91-2.54v.1a26.76,26.76,0,0,0-15.92.4c.45-9.86,6.59-17.88,6.59-17.88a83.41,83.41,0,0,1,49.09-7.33A351.22,351.22,0,0,1,570.9,574c1.71,2.08,5.33,6.85,5.88,10.48-6.21-.54-16.41,0-21.56,5.24,10-2.82,23-.53,33.19,4.53a31.08,31.08,0,0,0-8.65-15.3A363.23,363.23,0,0,1,613.41,601c1.25,3.18,4.47,11.73,4.82,16.28-7.23-1.15-17.73-2-24.71,3.49,12-2.45,25.6,2.54,37.16,9.34a58.75,58.75,0,0,0-9.43-23.16,361.18,361.18,0,0,1,34.4,30.54c1.45,5.14,4.91,18.18,4.37,23.46-7.63-2.8-20.42-3.33-29.52.54,13.52-.42,29.1,7,40.29,17.24,0,0-.35-20-7.13-32.86A344.18,344.18,0,0,1,704.81,700c.68,4.64,1.93,16.35-1,26.12-7.63-5-22-9.16-32.9-7.74a75.21,75.21,0,0,1,37.89,26.55A57.19,57.19,0,0,0,711.27,711,320.06,320.06,0,0,1,727,743.05c4,9.65,7.61,22.61,10.6,36.46-.23,4.14-1.53,19.46-8.36,31-6.68-7.64-17.68-19.81-30.79-20.29C713.33,798.19,722.89,814,729.15,831.42Zm-86.6-84.32c10.17,1.33,17.06,9.8,17.68,19.89-3.93,13-8.38,18.19,4.57,27.15,4.75,8.63-4.23,31.44-12.14,35.93-17.44,7.23-52.4,32.5-62.65,4.65,2.2-1.18,7.39-8.37,13.45-12.15,15-6.64,22.89-16.17,30.38-25.61-4.4,1-17.53,9.2-22.14,13.13-7,6-29.7,13-36.13,9.11-3.29-2-11.79-5-14-11.06,4.92-12.7,24.55-29.25,34.54-33.53,6.4-2.74,12.21-8,13.83-13.51-13.59,9.34-32.68,15.28-45.48,23.62-3,1.61-13.61,5.74-18.3,6.41-2.24.32-16.62-9.54-16-17,.32-4.17,5.83-11.69,8.66-14.12,8.86-8.63,45.14-22.49,44-34.33-12.68,13.17-40.11,16.07-54.67,30.71-6.77-4.9-14-13.28-15.69-22.61-3.77,4.43-2.11,14.06-.11,17.93a106,106,0,0,0-2,13.22c-2.15-3.24-4-6.48-5.38-8.9-1.17-4.93-.16-10,.48-15.27a145.94,145.94,0,0,1,3.43-16.13c12.67-12.63,31.66-17,47.06-26.3,7.09-3.68,12.05-10.45,20.56-11.75,9.49-1.65,21.4-2.79,30.24,1.44,2.28,4.76,4.13,9.83,7,14.57,5.87,2,12.46,2.23,18.28,3.37q6.28,10.23,11.92,20.84c-.17,4.14-.72,8.68-1.06,12.93-6.23-.3-13.85,6-15.06,12.3C629.58,748.26,640,746.76,642.55,747.1ZM515.77,784.3c1.28,13.44,10.52,25.94,22.22,32.38-7.25,2.12-18.84-.65-22.78-5.41-9.71-13.85-21-25.46-15.22-43.74C503.9,774.35,508.75,781.3,515.77,784.3Zm-133-142.92A105.42,105.42,0,0,1,362.83,637c1.54-27.22,1.34-46.68-11.9-64,38.55-2.58,76.16-16.41,94.06-34.14-9.33,24.25-56.08,53.19-66.05,56.77-3.84-7-8.91-13.56-15.64-18L363,578C377.15,595.64,382.12,619.19,382.76,641.38ZM273.87,425.12a141.74,141.74,0,0,1,9.51-11.77c33-36.23,71.09-37.89,107.18-22.06a32.71,32.71,0,0,1,3.54,11.15c-4.54-1.33-15.3-.45-21.69,4,12.76-.56,19.44-.48,31.64,6.26,0,0-3-12.51-7-18.37a194.48,194.48,0,0,1,35.24,23.12c1.08,2,2.86,6.69,3.26,16-6-1.92-17.13-1.83-24.65,1.79,13-.41,27.1,4.13,35.14,11.79,0,0-.24-13.14-6.94-23.85A303.59,303.59,0,0,1,469.52,454a44.21,44.21,0,0,1,2.4,20.07c-6.42-3-18.45-4.52-26.62-2.15,11.75.83,24.72,8.26,33.67,17.58a55,55,0,0,0-2.32-27A325.64,325.64,0,0,1,509.16,511c-15.22.64-31.12,4.86-43.6,13.76C427.3,463.85,351.26,381.63,273.87,425.12Zm-10.64,80.5c11.34-8.75,35.21-14.15,44.57-13.7-46.3,11.24-77.71,50.05-98.57,84.86-3,.31-5.94.71-8.89,1.23,13.5-25.17,31.55-47.25,52.87-66.34l-.91-1.19c-6.29,4.66-12.76,9.66-18.55,14.86-3-26.38,5.25-55.78,22.91-75.58,22-23.73,57.39-32.41,88.48-24.57C309.91,422.52,261.5,442,263.23,505.62ZM134.88,645.25c-23.84-7.21-7.59-19.43-23.11-39C149.59,566.33,184.2,523.45,219.19,481c-2.85,11.33-3.38,43.74-.61,59-29.93,33-55.35,69.68-81,106.06C137.62,646,135.87,645.55,134.88,645.25ZM422,396.34c25.7-5.52,52.43-3.93,78.26.2,11.29,74.68,93,120.75,164.36,107.46C565.87,529.13,493,457.18,488.08,403.56c-11.39-2.67-40.78-3.26-57.38-.36q-4.81-3.43-9.81-6.6Zm213.29-36.85c20.58-23.13,55.75-18.57,81.58-7.33-29-10-71.12-3.4-83.4,19.91-13.57-27.24-18-97.17,10.8-128.55C623.76,276.75,624.56,322.7,635.27,359.49ZM691.91,394c3.25-.19,7.26-.35,10.48-.33,1.16,4.25,2.91,4.77,2.91,4.77,0-1.68-.09-2.9,0-4.75,17.61.34,35.35,1.95,52.48,6.22l1.08-1.26c-15.08-5.49-41.24-7.93-53.62-8.4,0-2.17.08-4,.26-6.48-1.51.63-2.89,4-3.16,6.31-3.2-.19-7.35-.24-10.59-.23a39,39,0,0,1,.41-9.28c-2.47,1.95-3.11,6-3.31,9.36a62.63,62.63,0,0,0-11.95,1.37,15.78,15.78,0,0,1,1.79-5.6c10.59-20.15,71.51,7.94,95.06,10,0,0-10.31,4.24-14.81,11.29-9.75-3.72-36.9-7.49-58.37-1.39-12.95.82-20.92-3.26-23.13-9.37a56.55,56.55,0,0,1,11.64-2c1.49,5.86,3.8,7.1,3.8,7.1C692.45,398.9,692.11,396.45,691.91,394Zm-28.44,68.07a53.22,53.22,0,0,0,2.28,5c-37.55-7.78-50.35-49.48-56.74-82.72,0,0-8.63,8-11.35,23.67-20.51-31.72-13.8-75.64-1.47-109.45-8.29,27.43-9.49,66.59.9,89.6,3.61-6.35,12-10.68,14.94-11.18C620.81,421.33,638.55,452.54,663.47,462.07Zm-85.1-108.22c-15.32-5.3-21.59-25.31-23.11-40.16-2.88-33.29,16.44-66.79,42.43-26.44h0C585.26,306.5,579.55,330.29,578.37,353.85ZM538.15,373.5c8.61-6.39,17.4-12.63,26.41-18.43,3.84,3.61,8.4,6.29,13.69,6.92.17,9.82,1,19.18,3.34,28.54-7.15,27.5-10.43,70.93-6.24,91.94a132.3,132.3,0,0,1-27-19.1c0-19.19,12.17-55.57,17.58-73.15-17.77,17.52-32.22,33.17-46.48,33.88a100.89,100.89,0,0,1-8.2-28.35C519.39,387.49,528.9,380.56,538.15,373.5Zm-9.5,174.68a89.44,89.44,0,0,0-9,.64c-3.13-7.3-9.09-20.88-14.38-31.13a70.62,70.62,0,0,1,7.24-.81C518.29,527.29,523.79,537.58,528.65,548.18ZM702.24,679c28.74-52.36,34.19-92.07,31.62-120.83,14.86,50.85,7.36,66.69-22.44,134.6Q707,685.78,702.24,679Zm81.63-173.53c3.06.56,6.13,1,9.17,1.24,11.59,15.64,21.21,33.13,29.61,50.72.69,20.71-3.67,41.57-8.29,61.74a24.34,24.34,0,0,0-7.37-4.55c17.1,19.13,35.06,55.93,46.39,84.26a64.85,64.85,0,0,0-18.59,3.23c-17-52.74-31-82.85-58.63-111.06,0,0,17.69,7,26.8,16.63,3.89-10.17,5.51-32.4,6.91-49.83C803.48,542.61,792.4,516.85,783.87,505.47Zm36.45-86.59a41.66,41.66,0,0,0-9.12-3.59c-2.35-4.15-7.51-6.75-7.51-6.75,14.77,20.76,18.71,49.72,9.76,73.59a55.35,55.35,0,0,0-13.19-8.68c-.09-.73-.17-1.46-.27-2.19a20,20,0,0,1,10,3.06c1.69-7.18,3.36-22.07-.6-34.59a19.41,19.41,0,0,1,5.4,6.94c1.26-10.21-8.9-34.81-20.7-46.1,0,0,14,2.71,20.52,8.84-.39-6.18-2.38-13.51-4.8-20C816.35,398,820.61,408.31,820.32,418.88Zm-6.07-79.62c-1.71,12-6.31,23.79-10.83,35.1-.39-.31-.79-.6-1.19-.9,1.62-9.61-.22-33.1-4.55-49.61a21.8,21.8,0,0,1,1.05-6.55,15.55,15.55,0,0,0,8.84.53C809.87,325,812.71,332,814.25,339.26Zm.36-76.52a192.34,192.34,0,0,1,10.53,24.52c-6.76-1.29-16.46-.95-28.6,1.83-.27-7.5-3.74-11.69-3.74-11.69,1.37,11.61.18,24.07-7.86,32.9,9,10.11,11,44.23,9.77,59.13-7.87,5.71-22.53,8.14-30.6,3.27-9.61-5.8-16.86-10.49-28-5.47-3.35-3.66-5-8.84-5.33-13.81,4.19-4.12,9.73-7,15.16-9.3,8.54,7.14,14,6.88,14,6.88-4.71-3.93-9.66-8.23-11.88-14-8.83,2.91-17.32,6.37-24,13.27-15.33-7.91-35-13.06-53.18-11.87-2-11.33-14.44-16.06-15.72-34,4.89-17.83,50.54-28.95,60.37-27,4.78.93,14.88,4.51,25.14,9.51-16.08-4.58-30.52-3.37-44.88,3.88,3.5,1.89,9.2,6.92,9.2,6.92,8.55-1.7,25.47-1.29,33.41,7.39-4.76,6.64-20.6,7.37-32-1.67,1.86,9.88,11.26,12.52,18.61,13.92-3.06,1.56-6,1.54-11,1.43,5.72,7,30.22,4,44.52-1.87a15.61,15.61,0,0,1,3,11.42c9.44-5.86,10.67-16.09,10.47-22.15,11.14-5.1,12.72-20.55,6.56-30.07,0,0,1.18,6.19-1,11.4-45.43-28.49-58.41-33.56-101-17.36,1.9-19.23,46.72-22.11,50.87-26.13,4.31-4.17-1.32-21.07-11.92-28.72,23,2.85,46.08,13.09,64.55,24.2a49.54,49.54,0,0,0,19.12-2.1A179.41,179.41,0,0,1,814.61,262.74Zm-231-97.38c33-27.32,79.83-23.26,118.6-12.26,0,0-8-14.45-29.67-25.78,41.13-11.63,82.05,5.33,104.93,41.09,0,0-.45-9.08-13.09-24.23-5.12-6.13-7.91-13.87-13-20.09,31.74,1.27,57.75,32.8,50.54,64.22,11.53-4.53,15.76-17.15,16.53-28.86,35.89,30.84-14.4,94.39-53.44,64.5,8.92-8.58,9.29-22.86,4.93-24.14.27,4.21-3.72,7.84-8.52,8.77,6.42-8.64,10-38.22-12-48.86,0,0,6.26,18.82-1.81,24.71-.67-40.6-31.07-50.51-49.8-46.27,0,0,13.58,14.46,15,27.25-48.52-26.08-102.25-14.24-110.45,3.17,6.64-1.9,15.4-.34,18.36,3.06-31.68,1.58-50.42,30.85-49.46,44.51,4.23-4.91,9.71-8.42,14-9.43-11.31,11.34-10.71,39.21-7,54.74-7.42-1.74-15,.29-21,8.05-2.89-26.35,3.74-57.43,19.47-77.58,0,0-6.82,2-18.41,21.8C559.66,195,569.26,177.46,583.63,165.36Zm-421,549.08c2.06-14.35,12.27-27.38,13.93-42.28-2.84-28.95,6.2-57.87,18.47-83.87q5.09-1.18,10.2-1.92c-6.31,14.44-26.71,64.3-14.51,78.72,5.83-29.16,13.42-55.19,36.47-80,31.6,1,62.73,13.35,88.25,32.39-31.62-11.41-74-6.09-93.57,27.92l.41.29c23.94-25,59.88-31.58,91.77-19.8C344.45,639,374,653.77,408.42,647.17c-2.16,2.28-4.37,4.49-6.77,6.57l.25.44c20.5-10.58,33.92-30.68,50.3-46.3,5.77-5.9,14.47-8.86,20.93-14.24,13.25-11.33,22.12-6.61,36.78-.87a33.86,33.86,0,0,0-2.82-3.64A51.14,51.14,0,0,1,529,602.45a37.84,37.84,0,0,1-6.84-1.37c4.41,9.11,15,9.79,21.81,13.34,6.13,3.05,11.61,8.81,15.27,13.43-.39,5.63-13.66,0-16.13-.8-.11,1.52,4.89,5.67,6.73,6.3,8.89,3,10.76,3.84,17.78,9.11,9,8,8.07,13.79-8.57,8.46.51,8.29,13.43,9.6,20.07,14.93,4.42,2.49,7,10.25,8.57,12.4h-1.84c-12.28,1.93-15.19-2.14-31.14.61-10.64,2.13-20.34-10-18.88-14,1.19-3.16,9.77-4.23,12.37-5.21-7.36-22-27.94-14.72-28.31-31.29,8.13-1,12,2.06,15.94,1.63-.32-.84-5.85-10.42-12.36-12-11.72-3.9-38.09,4.23-43,12-15,23.94-35.37,44.44-65.42,60.65-6.08-7-8.68-17.36-7.82-28.21-5.64,3.47-7.81,10.85-9.11,16.92-12.81,5.13-129.47,25.7-175.24,7.53-18.79,17.12-42,22.38-50.82,22.12.51,11.71,13.91,19.91,22.07,20.2C206.55,750.87,233.06,766,245.8,769c30,7.19,101.6-1.27,116.58-18.85-32.55,5.86-73.28-4.33-63.8-7.81,51.25-18.79,92.44,4.19,122.38-7.81,8.65-3.46,14,9.44,40,9.77,20.81.26,28.61-5,35.89-10.07-.32,1.57-.62,3.14-.9,4.72-15.78,11.12-37.27,12.47-55.42,6.92-8.15-3.56-16.74-.08-24.51,2.61-8.13,2.72-17.39.46-25.81,3-45,12.53-88.82,34.93-136.85,28.5-28.32-3.79-49.38-24.61-66.91-45.52a36.79,36.79,0,0,0,1.91,6c-3.07,1.07-9.39.4-11-.43C173.22,737.93,165.45,724.68,162.64,714.44Zm611.12,433.31-51.33-79.08H700.16v79.08H570.94l-57.77-89.09H497.35v89.09H371.09l-12.92-45.51H281.35l-13.23,45.51H202L272.31,917h94.58l65.9,216.15V917h64.56v86.83h16.14L568,917H764.4c37.76,0,57.77,19.69,57.77,56.81v38.09c0,25.82-9.68,43.25-28.4,51.32L849,1147.75ZM884.53,791.27c-4.5,3.78-15,7.19-23.68,5a13.52,13.52,0,0,0,5.4,7.9c-5,23.14-41.29,51.22-63.64,57.09a125.37,125.37,0,0,1-48.38,3.05,38,38,0,0,0,1.48-11.47c41.62,5.2,60.78-8.77,89.31-41.16,3.26-4.92,6.56-14,7.39-19.44-4.54,6.14-16,12-25.87,14.18-8.93,2-58.56-11.56-75.28-17.72a273.58,273.58,0,0,0-19.9-59.4c7.54-5,30-11.53,67.81-11.15-14-7.08-50-8.9-73.95-1.37q-1.92-3.71-3.94-7.37c26.39-2.85,54-6.25,80.29-1.1,18.18,6.47,35.67,25.77,49.72,39,0,0-6.25-11.33-27.88-32.21,9.91-5.57,21-10.16,32.45-10.34a553.8,553.8,0,0,1,19.52,55.48l2,2.3C884.5,770.64,886.59,779.89,884.53,791.27Z"/><path d="M336,224.1a19.16,19.16,0,0,0-6-.61h0c-7.84.39-8.48,7.88-3.16,16.41C332.62,249.64,356.4,232.11,336,224.1Z"/><path d="M375,130.61c13.43,7.68,19-7.9,11.8-15.33C376.93,105.21,361.3,122.81,375,130.61Z"/><path d="M206.63,197c21-12.69,34,37.65,50,2.25,4.32-9.57,5.61-17.54,14.51-26.56,6.86-6.94-2.92-16.6-10.6-15.64s-11.32-.41-16.18-7.93c-3.37-5.21-16.11-7.52-23.63-6s-17,6.75-21.09,15.07c-2.22,4.51-.42,9.46.25,13.72.78,4.9,4.61,8.9-3.06,13-2.66,1.41-3.8,5.49-2.14,8.53C196.24,196.28,203.8,198.68,206.63,197Z"/><path d="M267.15,149.1h0c9.93,4.63,21.29-3.74,32.13-4.7,5.41-.41,8.81-3.52,7.05-7.53-2.76-6.2-6.88-14.65-12.14-16.16-10.33-2.2-11.25,7.05-17.23,11.14-4.64,3.17-11.07,4-13.44,10.48C262.41,145.36,264.91,148.06,267.15,149.1Z"/><path d="M105.38,479.87h0c14.76-23.62-14-43.08-29.88-20.64-6.92,10-3.06,19.73,7,27.1C89.81,491.62,100,488.37,105.38,479.87Z"/><path d="M97.42,393.25c6.29,4.69,10,2.38,13.7.06,7.08-4.44,5-14.74-.21-17.77s-12.71,0-14.73,4.5C94.67,383.43,93.37,390.24,97.42,393.25Z"/><path d="M135.91,331.74h0c9.06-1.28,7.2-16,2-18.49A8.08,8.08,0,0,0,127,317.14C122.18,327,127.59,332.91,135.91,331.74Z"/><path d="M209.51,352.33c-3.36-1.13-10.08-3.4-12.53.89h0c-3.2,6.85,10.06,18.24,16.32,16.4,4.33-1.27,7.43-6.44,6.31-10C218.21,355.22,212.59,353.37,209.51,352.33Z"/><polygon points="296.85 1047.37 342.36 1047.37 319.76 968.28 296.85 1047.37"/><polygon points="635.6 1131.59 635.6 928.51 570.3 1031.55 635.6 1131.59"/><path d="M744.71,971.83H700.16v42h44.55c9.68,0,12.91-3.23,12.91-12.59V984.42C757.62,975.06,754.39,971.83,744.71,971.83Z"/></svg>