<svg id="artwork" xmlns="http://www.w3.org/2000/svg" viewBox="0 0 1008 1296"><path d="M572.06,221c-10.81,6.76-14.67,21.24-11.46,33.07,0,0-.21-19.43,10.76-26.34,4.75,6.43,6.77,15.22,6.61,22.91-4.2-1.2-7.84-1.21-9.87,1.08-4.45,5-1.89,19.83,7.53,25C567,254.77,584,253.05,584,253.05,584.72,241.37,581.24,228.75,572.06,221Z"/><path d="M603.35,650.16c-6.12,2.77-9.89,7.78-12,17.57,5.67-7.91,8.76-9.64,17.37-11.72,6.39-1.55,10.87-.1,15.64-6.16C613.9,650.49,609.46,647.4,603.35,650.16Z"/><path d="M511,547.1c6.1.9,11.34,3.94,14.75,5.64a22.42,22.42,0,0,0-10.41-11.28c-4.41-2.35-7.81-1.83-12.37-1.09-6.75,1.69-11.94,5.86-17.82,9C491.27,550.79,503.92,546.05,511,547.1Z"/><path d="M862.76,425.93c-1.93,6.66,2.5,18.53,13,14.23,3.87-1.59,10-4.54,9.1-12.5-.68-6.31-.12-23.39-10.15-21.17C867.83,408,864.48,420,862.76,425.93Z"/><path d="M894.87,460.21h0c11.22,1.23,13.41-19.18,1.74-18.39C887.31,442.45,884.55,459.08,894.87,460.21Z"/><path d="M327.47,198.76c-5.24,8.76-4.2,12.5,5,18.07,8.73,5.27,11.54,4.77,16.36-2.92C359.91,197,339.22,178.52,327.47,198.76Z"/><path d="M111.84,450.28h0c8.75-2.51,10.06-17.1,3-18.77-3.09-.74-6.35,1.06-9.47,2.36C94.27,438.52,98.43,454.11,111.84,450.28Z"/><path d="M106.44,602c-5.42,6.28-3.38,21.22,5.89,23.89,13.83,4,24.45-16.59,15.59-26.85C123.72,594.16,109.69,598.22,106.44,602Z"/><path d="M157.05,666.15c4.52,15.55,11.95,25.52,26.8,29.32v429.71H867.06V764.83l.36-.5c22.53-5.24,29-27.41,27.29-48,8.49-3.92,15.69-7,21.39,3.71,9.95,18.68,20-2.12,19.9-11.74-.12-12.59-11.44-9.62-8-23.1,5.42-21.1-36.73-4.2-17.39-39.63,10.44-19.15-6.32-27.65-13.52-30.47-26.74-10.45-6.35-24.58-25.47-30.8-10-3.26-20.28-1.7-24.74-28.87-3-18.28,28.32-8.14,23.33-32.32-7.47-36.16,17.24-37.25,15.72-52-2.5-24.2-41.33-30.74-31.69-48.55,12.46-23-11.44-40,9.45-41.69,12.55-1,8-15.56,7.39-19.44-2.54-16.25-19.28-13.48-25.64-.17-4.46,9.28-7.46,30.56-20.26,37.23a88.08,88.08,0,0,0-8.69-33.66,95.64,95.64,0,0,1,10.13,7.73c4.94-18.82-3.28-37.84-16.68-51.1,6.61-12.43,12-25.69,14.26-39.7-.64-10.54-6.06-20.36-10.16-29.84,7.14-6.46,15.81-11.07,23.6-16.53-6.47-21.7-17.3-41.58-30.57-59.75,41.81-23,43.62-71,.1-93.68a53.8,53.8,0,0,1,1.13,34.23c-.21-40-40.44-66-77.87-58.95,5.08,3.25,9.84,6.58,13.22,11.35-30.28-18.48-68.5-11.76-100.09.61,14.36,1.6,31.56,5.61,43.32,15.73-36.57-13.6-88.4-5.39-115.43,22.24a10,10,0,0,1-4.71-1.42C543,88.69,543.51,103,527.9,100.27c-10.89-2.59-19.19,1.75-27.49,8.12-5.2,4-11.68,6.25-17.22,9.85-6.33,4.12-12.22,5-17.94-.65-20.55-14.39-.37-22-25.47-32.31-8.4-3.25-17.1-6-25-10.2C384.56,57.47,391.56,100,372.1,89c-7.9-4-10.29,7.58-13.06,13.26-15.87-3.26-22.63-33-34.51-6.34-13.44-10.69-38.35-8.61-40.91,11.44-1,5.2-5.64,2.64-8.47,11.15-1.86,5.58,8.39,8.16,12.42,12.41-6.8,2.32-18.86,1-18.23,11.13.26,4.91,2,7,8.19,7.85,11.65,1.66,18.47,8.13,24.94,9.92,3.66,1,12,1.85,15.21-.26,5-3.3,9.95-17.88,22.39-8.31,6.41,4.83,12.51,5.29,19.84,3.22,22.23-3.85-7.06,22.12,12.57,49.13,5.62,11.24-20,5.11-8,22.21,4.3,6.83,11.75,14.35,9.1,23-7.84,19.13,4.79,15.33,18.59,15.87-1.62,7.54-5.35,12.44-12.48,14.14-14.47,3.47-31.15,8.63-37.71,21.74-10.1,19.44-151.58,25.67-154.8,5.88-1.79-11-19.82-10-20.7-18.63-1.73-16.86-23.56-15.59-23.42-6.45.16,11.07-10.44,17.12-14.49,22.88-13.52,19.68,31.77,46.57,13.93,52.73-8.66,3-18.7,1.63-25.32-6-7.07-8.19-19.59-13.77-21-2.55-1.7,13.63,5,9.75,7.44,21.37,2.77,13,14.78,4.24,25.07,12.62,14.18,8.93-14.51,26.49,15.92,47.21,2,1.39,2.42,2.88,2.07,3.64-15.11,30.31,26.71,46.24-9.58,60.28-27.3,11.2-14.6,30.49-28.06,33.39-10.18,2.19-10.3,19.11-6.33,23.74,13.29,15.48,5.44,25.14,11.91,33.35,12.89,16.37,29,6.75,27.13,24-.88,7.83,8.13,9.1.36,27.78-3.29,8,4.38,26.87,14.91,30.41M742.29,440.73c-38.19-.47-84-24.24-82.23-67.25,4.51,21.26,20.21,39.06,30.12,42.23a55.5,55.5,0,0,1-1.73-14c7.46,21.49,32,32.71,48.92,32.7,0,0-3.06-18.44,2.89-34.5,2,9.26,5.64,17.49,13.88,22.57-1-3.11-.55-7.15.21-8.46,5.92,13.56,28.32,19.16,34.28,19.58,3.4-13.09,3.81-37.45-3.26-49.2,5.42,3.59,9.38,18.42,9.3,26.5-.09,9.8-.45,19.87-3.62,29.2-18-1.16-37.08-7.52-49.58-20.85A97.46,97.46,0,0,0,742.29,440.73ZM729.15,772.85s10.4-16,11.79-34.47c4.87,28.3,6.84,56.08,3.94,63.8-4.64,12.34-31.11,24.57-40.51,27.82-30,12.11-63.38-8.29-83-30.73,12.94-8.74,25.37-15.4,39.33-18.72a61,61,0,0,0,18.36,9.67c-.35,3.41-2.83,7.63-6.5,4.88l-.29.41c3,4.68,9.5,1.18,10.48-4.16C697.1,691,580.24,543.62,503.44,520.19c0,0,4.57,3.22,7.86,6-5-.77-10-1.46-14.91-2.54v.1a26.83,26.83,0,0,0-15.92.4c.45-9.85,6.59-17.87,6.59-17.87a83.25,83.25,0,0,1,49.09-7.33,351.14,351.14,0,0,1,34.76,16.47c1.71,2.08,5.33,6.85,5.88,10.48-6.21-.53-16.41,0-21.56,5.25,10-2.82,23-.53,33.19,4.53a31.09,31.09,0,0,0-8.65-15.31,363.33,363.33,0,0,1,33.65,22.07c1.25,3.18,4.47,11.72,4.82,16.27-7.23-1.15-17.73-2-24.71,3.5,12-2.46,25.6,2.53,37.16,9.33a58.73,58.73,0,0,0-9.43-23.15,361.08,361.08,0,0,1,34.4,30.53c1.45,5.14,4.91,18.19,4.37,23.46-7.63-2.79-20.42-3.32-29.52.54,13.52-.41,29.1,7,40.29,17.24,0,0-.35-19.94-7.13-32.86a344.64,344.64,0,0,1,41.15,54.14c.68,4.64,1.93,16.35-1,26.12-7.63-5-22-9.15-32.9-7.74a75.27,75.27,0,0,1,37.89,26.55,57.16,57.16,0,0,0,2.47-33.92A318.84,318.84,0,0,1,727,684.47c4,9.65,7.61,22.62,10.6,36.46-.23,4.14-1.53,19.46-8.36,31-6.68-7.63-17.68-19.8-30.79-20.29C713.33,739.61,722.89,755.37,729.15,772.85Zm-86.6-84.33c10.17,1.33,17.06,9.8,17.68,19.89-3.93,13-8.38,18.19,4.57,27.15,4.75,8.64-4.23,31.44-12.14,35.94-17.44,7.22-52.4,32.49-62.65,4.64,2.2-1.18,7.39-8.37,13.45-12.15,15-6.63,22.89-16.17,30.38-25.61-4.4,1-17.53,9.21-22.14,13.13-7,6-29.7,13-36.13,9.12-3.29-2-11.79-5-14-11.06,4.92-12.7,24.55-29.26,34.54-33.54,6.4-2.74,12.21-8,13.83-13.5-13.59,9.33-32.68,15.28-45.48,23.61-3,1.61-13.61,5.75-18.3,6.42-2.24.32-16.62-9.54-16-17,.32-4.17,5.83-11.69,8.66-14.12,8.86-8.63,45.14-22.5,44-34.34-12.68,13.18-40.11,16.07-54.67,30.72-6.77-4.91-14-13.28-15.69-22.62-3.77,4.44-2.11,14.06-.11,17.93a106.53,106.53,0,0,0-2,13.22c-2.15-3.23-4-6.47-5.38-8.9-1.17-4.92-.16-10,.48-15.27A145.94,145.94,0,0,1,508.75,666c12.67-12.62,31.66-17,47.06-26.29,7.09-3.69,12.05-10.46,20.56-11.76,9.49-1.64,21.4-2.78,30.24,1.44,2.28,4.77,4.13,9.83,7,14.57,5.87,2,12.46,2.24,18.28,3.37q6.28,10.23,11.92,20.84c-.17,4.15-.72,8.68-1.06,12.94-6.23-.31-13.85,6-15.06,12.3C629.58,689.68,640,688.18,642.55,688.52ZM515.77,725.73c1.28,13.44,10.52,25.93,22.22,32.37-7.25,2.13-18.84-.64-22.78-5.41-9.71-13.85-21-25.46-15.22-43.73C503.9,715.77,508.75,722.73,515.77,725.73Zm-133-142.92a105.42,105.42,0,0,1-19.93-4.43c1.54-27.22,1.34-46.69-11.9-64,38.55-2.58,76.16-16.41,94.06-34.15-9.33,24.26-56.08,53.2-66.05,56.77-3.84-7-8.91-13.55-15.64-18l-.35.36C377.15,537.06,382.12,560.62,382.76,582.81ZM273.87,366.55a143.56,143.56,0,0,1,9.51-11.78c33-36.23,71.09-37.88,107.18-22.06a32.79,32.79,0,0,1,3.54,11.15c-4.54-1.33-15.3-.44-21.69,4,12.76-.57,19.44-.48,31.64,6.26,0,0-3-12.51-7-18.38a194.54,194.54,0,0,1,35.24,23.13c1.08,2,2.86,6.69,3.26,16-6-1.92-17.13-1.84-24.65,1.79,13-.42,27.1,4.12,35.14,11.78,0,0-.24-13.14-6.94-23.85a304.63,304.63,0,0,1,30.41,30.77,44.26,44.26,0,0,1,2.4,20.08c-6.42-3-18.45-4.52-26.62-2.16,11.75.84,24.72,8.27,33.67,17.59a55,55,0,0,0-2.32-27,325.64,325.64,0,0,1,32.51,48.44c-15.22.65-31.12,4.86-43.6,13.77C427.3,405.27,351.26,323.06,273.87,366.55Zm-10.64,80.5c11.34-8.76,35.21-14.16,44.57-13.71-46.3,11.25-77.71,50.06-98.57,84.86-3,.31-5.94.72-8.89,1.24,13.5-25.17,31.55-47.26,52.87-66.35l-.91-1.19c-6.29,4.67-12.76,9.66-18.55,14.87-3-26.38,5.25-55.78,22.91-75.59,22-23.73,57.39-32.41,88.48-24.57C309.91,364,261.5,383.43,263.23,447.05ZM134.88,586.67c-23.84-7.21-7.59-19.42-23.11-39,37.82-39.94,72.43-82.83,107.42-125.25-2.85,11.32-3.38,43.73-.61,58.94-29.93,33-55.35,69.68-81,106.06C137.62,587.45,135.87,587,134.88,586.67ZM422,337.76c25.7-5.52,52.43-3.93,78.26.21,11.29,74.67,93,120.74,164.36,107.46C565.87,470.55,493,398.6,488.08,345c-11.39-2.66-40.78-3.26-57.38-.35q-4.81-3.44-9.81-6.61Zm213.29-36.84c20.58-23.14,55.75-18.57,81.58-7.33-29-10-71.12-3.41-83.4,19.91-13.57-27.24-18-97.18,10.8-128.55C623.76,218.18,624.56,264.12,635.27,300.92Zm56.64,34.5c3.25-.19,7.26-.34,10.48-.32,1.16,4.25,2.91,4.77,2.91,4.77,0-1.68-.09-2.9,0-4.75,17.61.34,35.35,1.95,52.48,6.22l1.08-1.27c-15.08-5.49-41.24-7.93-53.62-8.4,0-2.17.08-4,.26-6.48-1.51.64-2.89,4-3.16,6.31-3.2-.19-7.35-.24-10.59-.22a39.06,39.06,0,0,1,.41-9.29c-2.47,1.95-3.11,6-3.31,9.37a62.61,62.61,0,0,0-11.95,1.36,15.84,15.84,0,0,1,1.79-5.6c10.59-20.14,71.51,7.94,95.06,10.05,0,0-10.31,4.24-14.81,11.28-9.75-3.71-36.9-7.49-58.37-1.38-12.95.81-20.92-3.26-23.13-9.38a56.55,56.55,0,0,1,11.64-2c1.49,5.86,3.8,7.1,3.8,7.1C692.45,340.33,692.11,337.87,691.91,335.42ZM663.47,403.5a53,53,0,0,0,2.28,5C628.2,400.74,615.4,359,609,325.8c0,0-8.63,8-11.35,23.68-20.51-31.73-13.8-75.64-1.47-109.46-8.29,27.44-9.49,66.59.9,89.6,3.61-6.35,12-10.68,14.94-11.17C620.81,362.76,638.55,394,663.47,403.5Zm-85.1-108.22C563.05,290,556.78,270,555.26,255.11c-2.88-33.28,16.44-66.79,42.43-26.43h0C585.26,247.92,579.55,271.71,578.37,295.28Zm-40.22,19.64c8.61-6.38,17.4-12.62,26.41-18.43,3.84,3.61,8.4,6.29,13.69,6.93.17,9.81,1,19.18,3.34,28.53-7.15,27.51-10.43,70.94-6.24,91.94a131.91,131.91,0,0,1-27-19.1c0-19.19,12.17-55.57,17.58-73.14-17.77,17.51-32.22,33.16-46.48,33.88a101,101,0,0,1-8.2-28.35C519.39,328.92,528.9,322,538.15,314.92Zm-9.5,174.68c-2.86.06-5.88.27-9,.64-3.13-7.3-9.09-20.87-14.38-31.13a70.6,70.6,0,0,1,7.24-.8C518.29,468.71,523.79,479,528.65,489.6ZM702.24,620.43c28.74-52.36,34.19-92.07,31.62-120.83,14.86,50.84,7.36,66.69-22.44,134.59Q707,627.2,702.24,620.43Zm81.63-173.54c3.06.57,6.13,1,9.17,1.25,11.59,15.63,21.21,33.12,29.61,50.71.69,20.72-3.67,41.58-8.29,61.74A24.34,24.34,0,0,0,807,556c17.1,19.14,35.06,55.94,46.39,84.26a64.52,64.52,0,0,0-18.59,3.24c-17-52.75-31-82.86-58.63-111.06,0,0,17.69,7,26.8,16.62,3.89-10.16,5.51-32.39,6.91-49.83C803.48,484,792.4,458.28,783.87,446.89Zm36.45-86.59a42,42,0,0,0-9.12-3.58c-2.35-4.15-7.51-6.76-7.51-6.76,14.77,20.77,18.71,49.73,9.76,73.59a55.65,55.65,0,0,0-13.19-8.68c-.09-.73-.17-1.46-.27-2.19a20.13,20.13,0,0,1,10,3.06c1.69-7.18,3.36-22.06-.6-34.59a19.36,19.36,0,0,1,5.4,7c1.26-10.22-8.9-34.81-20.7-46.1,0,0,14,2.7,20.52,8.84-.39-6.19-2.38-13.51-4.8-20C816.35,339.47,820.61,349.74,820.32,360.3Zm-6.07-79.61c-1.71,12-6.31,23.78-10.83,35.09l-1.19-.89c1.62-9.61-.22-33.1-4.55-49.62a21.74,21.74,0,0,1,1.05-6.54,15.72,15.72,0,0,0,8.84.53C809.87,266.45,812.71,273.42,814.25,280.69Zm.36-76.53a192.47,192.47,0,0,1,10.53,24.53c-6.76-1.29-16.46-.95-28.6,1.82-.27-7.49-3.74-11.69-3.74-11.69,1.37,11.62.18,24.07-7.86,32.91,9,10.1,11,44.22,9.77,59.12-7.87,5.72-22.53,8.14-30.6,3.27-9.61-5.8-16.86-10.49-28-5.47-3.35-3.66-5-8.84-5.33-13.81,4.19-4.12,9.73-7,15.16-9.29,8.54,7.13,14,6.88,14,6.88-4.71-3.93-9.66-8.24-11.88-14-8.83,2.91-17.32,6.37-24,13.27-15.33-7.91-35-13.06-53.18-11.86-2-11.33-14.44-16.07-15.72-34,4.89-17.84,50.54-29,60.37-27,4.78.93,14.88,4.5,25.14,9.51-16.08-4.59-30.52-3.38-44.88,3.88,3.5,1.89,9.2,6.91,9.2,6.91,8.55-1.7,25.47-1.29,33.41,7.4-4.76,6.63-20.6,7.37-32-1.68,1.86,9.89,11.26,12.52,18.61,13.92-3.06,1.57-6,1.54-11,1.44,5.72,7,30.22,4,44.52-1.88a15.61,15.61,0,0,1,3,11.42c9.44-5.85,10.67-16.08,10.47-22.15,11.14-5.09,12.72-20.55,6.56-30.06,0,0,1.18,6.18-1,11.39-45.43-28.48-58.41-33.56-101-17.36,1.9-19.23,46.72-22.1,50.87-26.12,4.31-4.17-1.32-21.08-11.92-28.73,23,2.85,46.08,13.09,64.55,24.2a49.73,49.73,0,0,0,19.12-2.09A178.74,178.74,0,0,1,814.61,204.16Zm-231-97.38c33-27.32,79.83-23.26,118.6-12.25,0,0-8-14.45-29.67-25.79,41.13-11.63,82.05,5.33,104.93,41.1,0,0-.45-9.09-13.09-24.23-5.12-6.14-7.91-13.87-13-20.09,31.74,1.26,57.75,32.79,50.54,64.22,11.53-4.53,15.76-17.16,16.53-28.87,35.89,30.85-14.4,94.39-53.44,64.51,8.92-8.59,9.29-22.86,4.93-24.14.27,4.2-3.72,7.83-8.52,8.77,6.42-8.64,10-38.22-12-48.87,0,0,6.26,18.82-1.81,24.72-.67-40.61-31.07-50.52-49.8-46.27,0,0,13.58,14.45,15,27.24C664.39,80.75,610.66,92.59,602.46,110c6.64-1.9,15.4-.34,18.36,3.07-31.68,1.57-50.42,30.84-49.46,44.51,4.23-4.92,9.71-8.43,14-9.44-11.31,11.34-10.71,39.22-7,54.75-7.42-1.75-15,.28-21,8-2.89-26.35,3.74-57.43,19.47-77.58,0,0-6.82,2-18.41,21.81C559.66,136.39,569.26,118.88,583.63,106.78Zm-421,549.09c2.06-14.36,12.27-27.39,13.93-42.29-2.84-29,6.2-57.87,18.47-83.87,3.39-.79,6.79-1.42,10.2-1.92-6.31,14.44-26.71,64.3-14.51,78.73,5.83-29.17,13.42-55.19,36.47-80,31.6,1,62.73,13.35,88.25,32.4-31.62-11.41-74-6.09-93.57,27.92l.41.28c23.94-24.95,59.88-31.57,91.77-19.8,30.39,13.1,59.93,27.84,94.36,21.24-2.16,2.27-4.37,4.48-6.77,6.57l.25.43c20.5-10.57,33.92-30.67,50.3-46.29,5.77-5.91,14.47-8.87,20.93-14.25,13.25-11.33,22.12-6.61,36.78-.86a33.65,33.65,0,0,0-2.82-3.65A51.23,51.23,0,0,1,529,543.87a37,37,0,0,1-6.84-1.37c4.41,9.11,15,9.8,21.81,13.35,6.13,3,11.61,8.81,15.27,13.43-.39,5.62-13.66,0-16.13-.8-.11,1.52,4.89,5.66,6.73,6.29,8.89,3,10.76,3.84,17.78,9.11,9,8,8.07,13.8-8.57,8.47.51,8.29,13.43,9.6,20.07,14.93,4.42,2.49,7,10.24,8.57,12.4h-1.84c-12.28,1.92-15.19-2.15-31.14.6-10.64,2.13-20.34-10-18.88-13.95,1.19-3.16,9.77-4.23,12.37-5.21-7.36-22-27.94-14.72-28.31-31.29,8.13-1,12,2.06,15.94,1.63-.32-.83-5.85-10.42-12.36-12-11.72-3.91-38.09,4.23-43,12-15,23.95-35.37,44.44-65.42,60.65-6.08-6.94-8.68-17.36-7.82-28.21-5.64,3.47-7.81,10.85-9.11,16.93-12.81,5.13-129.47,25.69-175.24,7.52-18.79,17.12-42,22.39-50.82,22.13.51,11.7,13.91,19.91,22.07,20.2,12.36,21.6,38.87,36.68,51.61,39.74,30,7.19,101.6-1.27,116.58-18.85-32.55,5.86-73.28-4.34-63.8-7.81C349.83,665,391,688,421,676c8.65-3.46,14,9.44,40,9.77,20.81.26,28.61-5,35.89-10.06-.32,1.56-.62,3.13-.9,4.72-15.78,11.12-37.27,12.46-55.42,6.91-8.15-3.55-16.74-.07-24.51,2.61-8.13,2.72-17.39.46-25.81,3-45,12.53-88.82,34.93-136.85,28.49-28.32-3.79-49.38-24.61-66.91-45.51A36.79,36.79,0,0,0,188.4,682c-3.07,1.06-9.39.4-11-.44C173.22,679.36,165.45,666.1,162.64,655.87Zm611.12,433.31-51.33-79.09H700.16v79.09H570.94l-57.77-89.09H497.35v89.09H371.09l-12.92-45.52H281.35l-13.23,45.52H202l70.36-230.8h94.58l65.9,216.15V858.38h64.56v86.83h16.14L568,858.38H764.4c37.76,0,57.77,19.69,57.77,56.81v38.09c0,25.83-9.68,43.26-28.4,51.33L849,1089.18ZM884.53,732.7c-4.5,3.77-15,7.18-23.68,5a13.58,13.58,0,0,0,5.4,7.91c-5,23.13-41.29,51.22-63.64,57.08a125.37,125.37,0,0,1-48.38,3.06,38,38,0,0,0,1.48-11.47c41.62,5.19,60.78-8.78,89.31-41.16,3.26-4.92,6.56-14,7.39-19.44-4.54,6.13-16,12-25.87,14.18-8.93,2-58.56-11.57-75.28-17.72a273.66,273.66,0,0,0-19.9-59.41c7.54-5,30-11.53,67.81-11.15-14-7.08-50-8.89-73.95-1.36q-1.92-3.72-3.94-7.38c26.39-2.85,54-6.25,80.29-1.1,18.18,6.47,35.67,25.77,49.72,39,0,0-6.25-11.34-27.88-32.22,9.91-5.57,21-10.15,32.45-10.34a553.8,553.8,0,0,1,19.52,55.48l2,2.3C884.5,712.06,886.59,721.32,884.53,732.7Z"/><path d="M336,165.52a19.15,19.15,0,0,0-6-.6h0c-7.84.38-8.48,7.88-3.16,16.41C332.62,191.06,356.4,173.54,336,165.52Z"/><path d="M375,72c13.43,7.67,19-7.91,11.8-15.33C376.93,46.63,361.3,64.23,375,72Z"/><path d="M206.63,138.39c21-12.69,34,37.65,50,2.25,4.32-9.57,5.61-17.54,14.51-26.55,6.86-7-2.92-16.61-10.6-15.65s-11.32-.4-16.18-7.92c-3.37-5.22-16.11-7.53-23.63-6s-17,6.75-21.09,15.07c-2.22,4.52-.42,9.47.25,13.73.78,4.89,4.61,8.89-3.06,13-2.66,1.41-3.8,5.5-2.14,8.54C196.24,137.71,203.8,140.1,206.63,138.39Z"/><path d="M267.15,90.53h0c9.93,4.63,21.29-3.75,32.13-4.71,5.41-.4,8.81-3.52,7.05-7.53-2.76-6.19-6.88-14.64-12.14-16.16-10.33-2.2-11.25,7.05-17.23,11.14-4.64,3.17-11.07,4-13.44,10.48C262.41,86.79,264.91,89.48,267.15,90.53Z"/><path d="M105.38,421.29h0c14.76-23.62-14-43.08-29.88-20.64-6.92,10-3.06,19.73,7,27.09C89.81,433,100,429.79,105.38,421.29Z"/><path d="M97.42,334.68c6.29,4.69,10,2.37,13.7.05,7.08-4.44,5-14.74-.21-17.76s-12.71,0-14.73,4.49C94.67,324.85,93.37,331.66,97.42,334.68Z"/><path d="M135.91,273.16h0c9.06-1.28,7.2-16,2-18.49A8.09,8.09,0,0,0,127,258.56C122.18,268.42,127.59,274.33,135.91,273.16Z"/><path d="M209.51,293.76c-3.36-1.13-10.08-3.41-12.53.88h0c-3.2,6.85,10.06,18.24,16.32,16.4,4.33-1.28,7.43-6.45,6.31-10C218.21,296.65,212.59,294.8,209.51,293.76Z"/><polygon points="296.85 988.79 342.36 988.79 319.76 909.71 296.85 988.79"/><polygon points="635.6 1073.02 635.6 869.94 570.3 972.97 635.6 1073.02"/><path d="M744.71,913.26H700.16v42h44.55c9.68,0,12.91-3.23,12.91-12.59V925.85C757.62,916.49,754.39,913.26,744.71,913.26Z"/><path d="M264.54,1168.49v51.13c0,16.19-8.29,24.21-25,24.21H210.28c-16.59,0-24.89-8-24.89-24.21v-51.13c0-16.19,8.3-24.21,24.89-24.21h29.24C256.25,1144.28,264.54,1152.3,264.54,1168.49Zm-31.55-5H216.94c-6.8,0-9.11,2.17-9.11,8.56v44.07c0,6.39,2.31,8.57,9.11,8.57H233c6.8,0,9.11-2.18,9.11-8.57V1172C242.1,1165.63,239.79,1163.46,233,1163.46Z"/><path d="M314.05,1164.82v21.35h40.39v19.17H314.05v37.13H291.61v-96.83h68.54v19.18Z"/><path d="M405.44,1164.82v21.35h40.39v19.17H405.44v37.13H383v-96.83h68.54v19.18Z"/><path d="M509.47,1207.38H496.83v35.09H474.39v-96.83h51.54c16.59,0,24.89,8,24.89,24.21v13.46c0,12.65-5.17,20.27-15.51,23l25.44,36.17H534.5Zm-12.64-19.17h22.44c6.8,0,9.11-2.18,9.11-8.57v-6.26c0-6.39-2.31-8.56-9.11-8.56H496.83Z"/><path d="M655.54,1168.49v51.13c0,16.19-8.3,24.21-25,24.21H601.28c-16.6,0-24.89-8-24.89-24.21v-51.13c0-16.19,8.29-24.21,24.89-24.21h29.24C647.24,1144.28,655.54,1152.3,655.54,1168.49Zm-31.55-5h-16c-6.8,0-9.11,2.17-9.11,8.56v44.07c0,6.39,2.31,8.57,9.11,8.57h16c6.8,0,9.11-2.18,9.11-8.57V1172C633.1,1165.63,630.79,1163.46,624,1163.46Z"/><path d="M737.82,1220.31H702.46l-6.94,22.16h-23l31.28-96.83h32.77l31.15,96.83h-23Zm-5.85-19-11.83-37.81-11.7,37.81Z"/><path d="M865.52,1169.85v48.42c0,16.18-8.29,24.2-24.89,24.2H789.09v-96.83h51.54C857.23,1145.64,865.52,1153.66,865.52,1169.85Zm-22.44,3.53c0-6.39-2.31-8.56-9.11-8.56H811.53v58.48H834c6.8,0,9.11-2.18,9.11-8.57Z"/></svg>