<svg id="artwork" xmlns="http://www.w3.org/2000/svg" viewBox="0 0 1008 1296"><defs><style>.cls-1{fill:#fff;}.cls-2{fill:#a62e22;}</style></defs><path class="cls-1" d="M928,684.86c5.42-21.1-36.73-4.2-17.39-39.63,10.44-19.14-6.32-27.65-13.52-30.46-26.74-10.45-6.35-24.58-25.47-30.8-10-3.26-20.28-1.71-24.74-28.88-3-18.27,28.32-8.13,23.33-32.31-7.47-36.16,17.24-37.26,15.72-52-2.5-24.21-41.33-30.75-31.69-48.55,12.46-23-11.44-40,9.45-41.69,12.55-1,8-15.56,7.39-19.45-2.54-16.25-19.28-13.48-25.64-.16-4.46,9.27-7.46,30.56-20.26,37.22a88.18,88.18,0,0,0-8.69-33.66,97,97,0,0,1,10.13,7.73c4.94-18.82-3.28-37.83-16.68-51.09,6.61-12.44,12-25.69,14.26-39.7-.64-10.54-6.06-20.37-10.16-29.84,7.14-6.47,15.81-11.07,23.6-16.54-6.47-21.7-17.3-41.57-30.57-59.74,41.81-23,43.62-71,.1-93.69a53.84,53.84,0,0,1,1.13,34.24c-.21-40-40.44-66-77.87-59,5.08,3.26,9.84,6.58,13.22,11.36-30.28-18.49-68.5-11.77-100.09.6,14.36,1.61,31.56,5.61,43.32,15.74C650.33,71,598.5,79.25,571.47,106.88a9.91,9.91,0,0,1-4.71-1.43C543,88.38,543.51,102.72,527.9,100c-10.89-2.6-19.19,1.74-27.49,8.11-5.2,4-11.68,6.25-17.22,9.85-6.33,4.12-12.22,5-17.94-.65-20.55-14.39-.37-22-25.47-32.31-8.4-3.25-17.1-6-25-10.2-30.2-17.61-23.2,24.89-42.66,13.9-7.9-4-10.29,7.58-13.06,13.27-15.87-3.27-22.63-33-34.51-6.34C311.09,84.89,286.18,87,283.62,107c-1,5.21-5.64,2.64-8.47,11.15-1.86,5.59,8.39,8.16,12.42,12.42-6.8,2.32-18.86,1-18.23,11.12.26,4.91,2,7,8.19,7.86,11.65,1.66,18.47,8.12,24.94,9.91,3.66,1,12,1.85,15.21-.26,5-3.3,9.95-17.87,22.39-8.31,6.41,4.84,12.51,5.3,19.84,3.22,22.23-3.85-7.06,22.12,12.57,49.13,5.62,11.25-20,5.12-8,22.22,4.3,6.83,11.75,14.35,9.1,23-7.84,19.13,4.79,15.32,18.59,15.86-1.62,7.55-5.35,12.45-12.48,14.15-14.47,3.46-31.15,8.63-37.71,21.74-10.1,19.44-151.58,25.66-154.8,5.88-1.79-11-19.82-10-20.7-18.63-1.73-16.87-23.56-15.6-23.42-6.46.16,11.07-10.44,17.12-14.49,22.88-13.52,19.68,31.77,46.58,13.93,52.73-8.66,3-18.7,1.63-25.32-6-7.07-8.18-19.59-13.76-21-2.54-1.7,13.63,5,9.75,7.44,21.37,2.77,13,14.78,4.24,25.07,12.62,14.18,8.92-14.51,26.49,15.92,47.2,2,1.39,2.42,2.88,2.07,3.65-15.11,30.3,26.71,46.23-9.58,60.27-27.3,11.2-14.6,30.49-28.06,33.39-10.18,2.19-10.3,19.12-6.33,23.74,13.29,15.48,5.44,25.15,11.91,33.36,12.89,16.37,29,6.74,27.13,24-.88,7.83,8.13,9.11.36,27.79-3.29,8,4.38,26.86,14.91,30.4h0c4.52,15.55,11.95,25.53,26.8,29.32v429.71H867.06V764.51l.36-.5c22.53-5.23,29-27.41,27.29-48,8.49-3.93,15.69-7,21.39,3.71,9.95,18.67,20-2.12,19.9-11.74C935.88,695.37,924.56,698.34,928,684.86Z"/><path class="cls-2" d="M716.85,293.34c-25.83-11.24-61-15.81-81.58,7.33-10.71-36.8-11.51-82.74,9-116-28.78,31.37-24.37,101.31-10.8,128.55C645.73,289.94,687.89,283.31,716.85,293.34Z"/><path class="cls-2" d="M596.19,239.77c-12.33,33.82-19,77.74,1.47,109.46,2.72-15.7,11.35-23.68,11.35-23.68,6.39,33.24,19.19,74.95,56.74,82.73a53.22,53.22,0,0,1-2.28-5c-24.92-9.53-42.66-40.74-51.44-85.05-2.94.49-11.33,4.82-14.94,11.18C586.7,306.36,587.9,267.21,596.19,239.77Z"/><path class="cls-2" d="M702.23,94.28c-38.77-11-85.6-15.06-118.6,12.26-14.37,12.1-24,29.61-25.19,48.37,11.59-19.82,18.41-21.8,18.41-21.8-15.73,20.14-22.36,51.22-19.47,77.58,6-7.77,13.54-9.79,21-8.05-3.71-15.53-4.31-43.4,7-54.75-4.27,1-9.75,4.53-14,9.44-1-13.67,17.78-42.93,49.46-44.51-3-3.4-11.72-5-18.36-3.07,8.2-17.41,61.93-29.24,110.45-3.17-1.44-12.79-15-27.24-15-27.24C716.62,75.1,747,85,747.69,125.61c8.07-5.9,1.81-24.72,1.81-24.72,22,10.65,18.38,40.23,12,48.87,4.8-.94,8.79-4.57,8.52-8.77,4.36,1.28,4,15.56-4.93,24.14a43,43,0,0,0,5.29,3.45l.62.33c17.91,9.37,37.12,1.2,48.8-13.13C828.17,140,830.43,125,821.32,108c-.81,5.46-5.33,10-8.73,12.66A22.37,22.37,0,0,1,802,129.49a47.55,47.55,0,0,0,1.2-11.55c-6.35-31.8-32.71-46.15-48.93-48.75,3.46,5.36,6.08,11.27,10.17,16.17,12.64,15.14,13.09,24.23,13.09,24.23a105.87,105.87,0,0,0-7.29-10C735,64,703.28,67.37,677.6,71.33,695.48,82.1,702.23,94.28,702.23,94.28Z"/><path class="cls-2" d="M688.45,401.43a55.6,55.6,0,0,0,1.73,14c-9.91-3.18-25.61-21-30.12-42.24-1.74,43,44,66.79,82.23,67.25a97.44,97.44,0,0,1-.82-21.52c12.5,13.34,31.6,19.69,49.58,20.85,3.17-9.33,3.53-19.39,3.62-29.19.08-8.09-3.88-22.92-9.3-26.51,7.07,11.75,6.66,36.11,3.26,49.21-6-.43-28.36-6-34.28-19.59-.76,1.32-1.25,5.35-.21,8.46-8.24-5.08-11.91-13.31-13.88-22.56-6,16.05-2.89,34.49-2.89,34.49C720.48,434.13,695.91,422.91,688.45,401.43Z"/><path class="cls-2" d="M814.79,387.85a19.45,19.45,0,0,0-5.4-7c4,12.53,2.29,27.41.6,34.6a19.92,19.92,0,0,0-10-3.06c.1.73.18,1.46.27,2.19a55.61,55.61,0,0,1,13.19,8.67c8.95-23.86,5-52.82-9.76-73.59,0,0,5.16,2.61,7.51,6.76a41.66,41.66,0,0,1,9.12,3.59c.29-10.57-4-20.84-10.51-29.43,2.42,6.45,4.41,13.78,4.8,20-6.51-6.13-20.52-8.84-20.52-8.84C805.89,353,816.05,377.63,814.79,387.85Z"/><path class="cls-2" d="M134.88,586.42c-23.84-7.2-7.59-19.42-23.11-39,37.82-40,72.43-82.84,107.42-125.26-2.85,11.33-3.38,43.73-.61,58.94-29.93,33-55.35,69.69-81,106.06C137.62,587.2,135.87,586.72,134.88,586.42Z"/><path class="cls-2" d="M283.38,354.53a141.74,141.74,0,0,0-9.51,11.77C351.26,322.81,427.3,405,465.56,465.9c10.4-7.42,23.17-11.57,35.93-13.13a383.19,383.19,0,0,0-22.28-35.47c1.43,6,.47,14.68.47,14.68-8.93-9.3-21.86-16.71-33.59-17.55,8.16-2.36,19.61.75,26,3.7.33-4.54.24-10-2.17-13.29-8.64-11.78-18.31-21.73-27.22-30.3,3.42,5.68,4.13,15.11,4.13,15.11-8-7.64-22.11-12.17-35.06-11.75,7.51-3.62,18.75-1.78,24.73.14,0-3.92-2.57-10.09-3.6-12.43A202.62,202.62,0,0,0,399.62,342c3.91,5.33,5.32,13.42,5.32,13.42-12.17-6.73-18.84-6.81-31.57-6.25,8-4.35,17.59-3.68,22.12-2.36-.16-2.32-2.78-6.69-4.44-9.27-19.71-9-37.91-13.77-63.49-11.74C312.27,330,297.36,339.16,283.38,354.53Z"/><path class="cls-2" d="M738.26,798c.13-.62-.37-29.67-1.89-42.36-1.8,8.24-7.08,17.53-7.08,17.53C723,755.7,713.51,740,698.63,732c13.08.48,24,12.63,30.71,20.25,2.64-3.72,3.58-11.06,3.91-16.58a257.55,257.55,0,0,0-21.33-64c.38,7.16-2.94,15.22-2.94,15.22a75,75,0,0,0-37.8-26.49c10.89-1.42,24.8,3.65,32.4,8.68,1.42-3.9.72-9.52-.1-13.51-5.15-9.14-10.74-18-16.69-26.68-5.74-8.38-11.82-16.48-18.16-24.28,2.34,6.75,2.43,16.22,2.43,16.22-11.16-10.2-26.71-17.62-40.2-17.2,9.09-3.86,22-1.47,29.6,1.33.47-4.67-2.23-11.08-3.88-14.47A396.2,396.2,0,0,0,628,561.65a56.4,56.4,0,0,1,3,10.62c-11.53-6.79-25.12-11.76-37.07-9.31,7.49-4.64,18.46-3.58,25.68-2.43-.24-3.1-2.12-6.79-3.76-9.48a350.33,350.33,0,0,0-30.31-22.76,69.6,69.6,0,0,1,3.3,8.2c-10.2-5-23.15-7.33-33.12-4.52,6.06-4.4,16.25-5,22.44-4.42a13.43,13.43,0,0,0-2.9-5.82c-20.86-12.71-40.6-21-57-23.89A82.63,82.63,0,0,0,487.05,506s-6.14,8-6.59,17.87a26.83,26.83,0,0,1,15.92-.4v-.09c4.92,1.07,9.92,1.76,14.91,2.54-3.29-2.76-7.86-6-7.86-6C580.24,543.37,697.1,690.79,682.8,791.1c-1,5.34-7.44,8.84-10.48,4.16,0,0,5.68,2.91,6.79-5.29a61,61,0,0,1-18.36-9.67c-14,3.32-26.39,10-39.33,18.72,19.54,22.41,52.81,42.78,82.83,30.77C724.17,819.46,736.92,804.26,738.26,798Z"/><path d="M572.06,220.71c-10.81,6.76-14.67,21.24-11.46,33.07,0,0-.21-19.43,10.76-26.34,4.75,6.43,6.77,15.22,6.61,22.91-4.2-1.2-7.84-1.21-9.87,1.08-4.45,5-1.89,19.83,7.53,25C567,254.53,584,252.8,584,252.8,584.72,241.12,581.24,228.5,572.06,220.71Z"/><path d="M603.35,649.92c-6.12,2.76-9.89,7.77-12,17.57,5.67-7.91,8.76-9.65,17.37-11.73,6.39-1.55,10.87-.1,15.64-6.15C613.9,650.24,609.46,647.15,603.35,649.92Z"/><path d="M511,546.85c6.1.91,11.34,3.94,14.75,5.65a22.44,22.44,0,0,0-10.41-11.29c-4.41-2.34-7.81-1.83-12.37-1.08-6.75,1.68-11.94,5.86-17.82,9C491.27,550.54,503.92,545.8,511,546.85Z"/><path d="M862.76,425.68c-1.93,6.66,2.5,18.53,13,14.23,3.87-1.59,10-4.54,9.1-12.5-.68-6.31-.12-23.39-10.15-21.17C867.83,407.76,864.48,419.71,862.76,425.68Z"/><path d="M894.87,460h0c11.22,1.24,13.41-19.18,1.74-18.39C887.31,442.2,884.55,458.83,894.87,460Z"/><path d="M327.47,198.51c-5.24,8.77-4.2,12.51,5,18.07,8.73,5.27,11.54,4.77,16.36-2.92C359.91,196.74,339.22,178.27,327.47,198.51Z"/><path d="M111.84,450h0c8.75-2.5,10.06-17.09,3-18.77-3.09-.73-6.35,1.06-9.47,2.37C94.27,438.27,98.43,453.86,111.84,450Z"/><path d="M106.44,601.74C101,608,103.06,623,112.33,625.63c13.83,4,24.45-16.58,15.59-26.85C123.72,593.92,109.69,598,106.44,601.74Z"/><path d="M157.05,665.9c4.52,15.55,11.95,25.52,26.8,29.32v429.71H867.06V764.58l.36-.5c22.53-5.23,29-27.41,27.29-48,8.49-3.92,15.69-7,21.39,3.72,9.95,18.67,20-2.12,19.9-11.75-.12-12.59-11.44-9.62-8-23.1,5.42-21.1-36.73-4.2-17.39-39.63,10.44-19.14-6.32-27.65-13.52-30.46-26.74-10.45-6.35-24.59-25.47-30.8-10-3.26-20.28-1.71-24.74-28.88-3-18.27,28.32-8.14,23.33-32.31-7.47-36.16,17.24-37.26,15.72-52-2.5-24.21-41.33-30.75-31.69-48.56,12.46-23-11.44-40,9.45-41.68,12.55-1,8-15.56,7.39-19.45-2.54-16.25-19.28-13.48-25.64-.16-4.46,9.27-7.46,30.55-20.26,37.22a88.13,88.13,0,0,0-8.69-33.66,95.64,95.64,0,0,1,10.13,7.73c4.94-18.82-3.28-37.83-16.68-51.09,6.61-12.44,12-25.7,14.26-39.7-.64-10.54-6.06-20.37-10.16-29.84,7.14-6.47,15.81-11.08,23.6-16.54-6.47-21.7-17.3-41.58-30.57-59.75,41.81-23,43.62-71,.1-93.68A53.81,53.81,0,0,1,808.32,116C808.11,76,767.88,50,730.45,57c5.08,3.26,9.84,6.58,13.22,11.36-30.28-18.49-68.5-11.77-100.09.6,14.36,1.6,31.56,5.61,43.32,15.73C650.33,71.1,598.5,79.32,571.47,107a9.91,9.91,0,0,1-4.71-1.43C543,88.45,543.51,102.79,527.9,100c-10.89-2.6-19.19,1.74-27.49,8.11-5.2,4-11.68,6.25-17.22,9.85-6.33,4.12-12.22,5-17.94-.65-20.55-14.39-.37-22-25.47-32.31-8.4-3.25-17.1-6-25-10.2-30.2-17.61-23.2,24.89-42.66,13.9-7.9-4-10.29,7.58-13.06,13.27-15.87-3.27-22.63-33-34.51-6.34C311.09,85,286.18,87,283.62,107.09c-1,5.21-5.64,2.64-8.47,11.15-1.86,5.59,8.39,8.16,12.42,12.42-6.8,2.32-18.86,1-18.23,11.12.26,4.91,2,7,8.19,7.85,11.65,1.67,18.47,8.13,24.94,9.92,3.66,1,12,1.85,15.21-.26,5-3.3,9.95-17.88,22.39-8.31,6.41,4.84,12.51,5.29,19.84,3.22,22.23-3.85-7.06,22.12,12.57,49.13,5.62,11.25-20,5.12-8,22.21,4.3,6.83,11.75,14.35,9.1,23-7.84,19.14,4.79,15.33,18.59,15.87-1.62,7.54-5.35,12.44-12.48,14.14-14.47,3.47-31.15,8.64-37.71,21.75-10.1,19.44-151.58,25.66-154.8,5.88-1.79-11-19.82-10-20.7-18.64-1.73-16.86-23.56-15.59-23.42-6.45.16,11.07-10.44,17.12-14.49,22.88-13.52,19.68,31.77,46.58,13.93,52.73-8.66,3-18.7,1.63-25.32-6-7.07-8.18-19.59-13.77-21-2.55-1.7,13.63,5,9.75,7.44,21.37,2.77,13,14.78,4.25,25.07,12.62,14.18,8.93-14.51,26.49,15.92,47.21,2,1.39,2.42,2.88,2.07,3.65-15.11,30.3,26.71,46.23-9.58,60.27-27.3,11.2-14.6,30.49-28.06,33.39-10.18,2.19-10.3,19.11-6.33,23.74,13.29,15.48,5.44,25.14,11.91,33.36,12.89,16.37,29,6.74,27.13,24-.88,7.83,8.13,9.11.36,27.79-3.29,8,4.38,26.86,14.91,30.4M742.29,440.48c-38.19-.46-84-24.23-82.23-67.25,4.51,21.26,20.21,39.06,30.12,42.24a55.6,55.6,0,0,1-1.73-14c7.46,21.48,32,32.7,48.92,32.69,0,0-3.06-18.44,2.89-34.49,2,9.25,5.64,17.48,13.88,22.56-1-3.11-.55-7.15.21-8.46,5.92,13.56,28.32,19.16,34.28,19.59,3.4-13.1,3.81-37.46-3.26-49.21,5.42,3.59,9.38,18.42,9.3,26.51-.09,9.8-.45,19.86-3.62,29.19-18-1.16-37.08-7.51-49.58-20.85A97.44,97.44,0,0,0,742.29,440.48Zm-99.74,247.8c10.17,1.32,17.06,9.79,17.68,19.89-3.93,13-8.38,18.18,4.57,27.14,4.75,8.64-4.23,31.44-12.14,35.94-17.44,7.22-52.4,32.49-62.65,4.64,2.2-1.17,7.39-8.37,13.45-12.15,15-6.63,22.89-16.16,30.38-25.6-4.4,1-17.53,9.2-22.14,13.13-7,6-29.7,13-36.13,9.11-3.29-2-11.79-5-14-11.06,4.92-12.7,24.55-29.25,34.54-33.53,6.4-2.75,12.21-8,13.83-13.51-13.59,9.34-32.68,15.28-45.48,23.61-3,1.62-13.61,5.75-18.3,6.42-2.24.32-16.62-9.54-16-17,.32-4.17,5.83-11.69,8.66-14.12,8.86-8.63,45.14-22.49,44-34.34C570,680,542.61,682.91,528.05,697.56c-6.77-4.91-14-13.28-15.69-22.62-3.77,4.44-2.11,14.07-.11,17.94a106,106,0,0,0-2,13.22c-2.15-3.24-4-6.48-5.38-8.91-1.17-4.92-.16-10,.48-15.26a145.94,145.94,0,0,1,3.43-16.13c12.67-12.63,31.66-17,47.06-26.3,7.09-3.68,12.05-10.45,20.56-11.76,9.49-1.64,21.4-2.78,30.24,1.45,2.28,4.76,4.13,9.82,7,14.56,5.87,2,12.46,2.24,18.28,3.38q6.28,10.22,11.92,20.83c-.17,4.15-.72,8.68-1.06,12.94-6.23-.3-13.85,6-15.06,12.3C629.58,689.43,640,687.94,642.55,688.28Zm-126.78,37.2c1.28,13.44,10.52,25.93,22.22,32.38-7.25,2.12-18.84-.65-22.78-5.42-9.71-13.85-21-25.45-15.22-43.73C503.9,715.52,508.75,722.48,515.77,725.48Zm229.11,76.45c-4.64,12.34-31.11,24.57-40.51,27.82-30,12.11-63.38-8.29-83-30.73,12.94-8.74,25.37-15.4,39.33-18.72A61,61,0,0,0,679.11,790c-.35,3.41-2.83,7.63-6.5,4.88l-.29.41c3,4.68,9.5,1.18,10.48-4.16,14.3-100.31-102.56-247.73-179.36-271.16,0,0,4.57,3.22,7.86,6-5-.78-10-1.47-14.91-2.54v.09a26.83,26.83,0,0,0-15.92.4c.45-9.85,6.59-17.87,6.59-17.87a83.41,83.41,0,0,1,49.09-7.33C620,532.85,691.69,600.44,727,684.22,740.6,717.17,749.83,788.75,744.88,801.93ZM382.76,582.56a105.42,105.42,0,0,1-19.93-4.43c1.54-27.22,1.34-46.68-11.9-64,38.55-2.58,76.16-16.41,94.06-34.15-9.33,24.26-56.08,53.2-66.05,56.78-3.84-7-8.91-13.56-15.64-18l-.35.36C377.15,536.81,382.12,560.37,382.76,582.56ZM273.87,366.3a141.74,141.74,0,0,1,9.51-11.77c78.18-85.9,185.25,22.53,225.78,97.6-15.22.65-31.12,4.87-43.6,13.77C427.3,405,351.26,322.81,273.87,366.3Zm-10.64,80.5c11.34-8.76,35.21-14.16,44.57-13.7-46.3,11.24-77.71,50-98.57,84.85-3,.31-5.94.72-8.89,1.24,13.5-25.17,31.55-47.26,52.87-66.35l-.91-1.19c-6.29,4.67-12.76,9.66-18.55,14.87-3-26.38,5.25-55.78,22.91-75.58,22-23.74,57.39-32.41,88.48-24.58C309.91,363.7,261.5,383.18,263.23,446.8ZM134.88,586.42c-23.84-7.2-7.59-19.42-23.11-39,37.82-40,72.43-82.84,107.42-125.26-2.85,11.33-3.38,43.73-.61,58.94-29.93,33-55.35,69.69-81,106.06C137.62,587.2,135.87,586.72,134.88,586.42ZM422,337.52c25.7-5.53,52.43-3.94,78.26.2,11.29,74.67,93,120.74,164.36,107.46C565.87,470.3,493,398.36,488.08,344.73c-11.39-2.66-40.78-3.26-57.38-.35-3.21-2.29-6.48-4.5-9.81-6.6Zm213.29-36.85c20.58-23.14,55.75-18.57,81.58-7.33-29-10-71.12-3.4-83.4,19.91-13.57-27.24-18-97.18,10.8-128.55C623.76,217.93,624.56,263.87,635.27,300.67Zm56.64,34.5c3.25-.18,7.26-.34,10.48-.32,1.16,4.25,2.91,4.77,2.91,4.77,0-1.68-.09-2.9,0-4.75,17.61.34,35.35,1.95,52.48,6.22l1.08-1.27c-15.08-5.48-41.24-7.92-53.62-8.39,0-2.18.08-4,.26-6.49-1.51.64-2.89,4-3.16,6.31-3.2-.19-7.35-.24-10.59-.22a39,39,0,0,1,.41-9.28c-2.47,1.94-3.11,6-3.31,9.36a62.63,62.63,0,0,0-11.95,1.37,15.89,15.89,0,0,1,1.79-5.61c10.59-20.14,71.51,7.95,95.06,10.05,0,0-10.31,4.24-14.81,11.28-9.75-3.71-36.9-7.49-58.37-1.38-12.95.82-20.92-3.26-23.13-9.37a55.88,55.88,0,0,1,11.64-2c1.49,5.85,3.8,7.09,3.8,7.09C692.45,340.08,692.11,337.62,691.91,335.17Zm-28.44,68.08a53.22,53.22,0,0,0,2.28,5C628.2,400.5,615.4,358.79,609,325.55c0,0-8.63,8-11.35,23.68-20.51-31.72-13.8-75.64-1.47-109.46-8.29,27.44-9.49,66.59.9,89.61,3.61-6.36,12-10.69,14.94-11.18C620.81,362.51,638.55,393.72,663.47,403.25ZM578.37,295c-15.32-5.31-21.59-25.32-23.11-40.16-2.88-33.29,16.44-66.8,42.43-26.44h0C585.26,247.67,579.55,271.47,578.37,295Zm-40.22,19.64c8.61-6.38,17.4-12.62,26.41-18.42,3.84,3.6,8.4,6.28,13.69,6.92.17,9.82,1,19.18,3.34,28.53-7.15,27.51-10.43,70.94-6.24,91.94a131.91,131.91,0,0,1-27-19.1c0-19.18,12.17-55.57,17.58-73.14-17.77,17.51-32.22,33.17-46.48,33.88a101,101,0,0,1-8.2-28.35C519.39,328.67,528.9,321.73,538.15,314.67Zm-9.5,174.69a89.34,89.34,0,0,0-9,.63c-3.13-7.3-9.09-20.87-14.38-31.13a70.6,70.6,0,0,1,7.24-.8C518.29,468.47,523.79,478.76,528.65,489.36ZM702.24,620.18c28.74-52.36,34.19-92.07,31.62-120.83C748.72,550.2,741.22,566,711.42,634Q707,626.94,702.24,620.18Zm81.63-173.53c3.06.56,6.13,1,9.17,1.24,11.59,15.63,21.21,33.12,29.61,50.71.69,20.72-3.67,41.58-8.29,61.75A24.09,24.09,0,0,0,807,555.8c17.1,19.13,35.06,55.93,46.39,84.25a65.21,65.21,0,0,0-18.59,3.24c-17-52.74-31-82.86-58.63-111.06,0,0,17.69,7,26.8,16.62,3.89-10.16,5.51-32.39,6.91-49.83C803.48,483.79,792.4,458,783.87,446.65Zm36.45-86.59a41.66,41.66,0,0,0-9.12-3.59c-2.35-4.15-7.51-6.76-7.51-6.76,14.77,20.77,18.71,49.73,9.76,73.59a55.61,55.61,0,0,0-13.19-8.67c-.09-.73-.17-1.46-.27-2.19a19.92,19.92,0,0,1,10,3.06c1.69-7.19,3.36-22.07-.6-34.6a19.45,19.45,0,0,1,5.4,7c1.26-10.22-8.9-34.81-20.7-46.1,0,0,14,2.71,20.52,8.84-.39-6.18-2.38-13.51-4.8-20C816.35,339.22,820.61,349.49,820.32,360.06Zm-6.07-79.62c-1.71,12-6.31,23.79-10.83,35.09l-1.19-.89c1.62-9.61-.22-33.1-4.55-49.61a21.75,21.75,0,0,1,1.05-6.55,15.63,15.63,0,0,0,8.84.53C809.87,266.2,812.71,273.17,814.25,280.44Zm.36-76.52a191.73,191.73,0,0,1,10.53,24.52c-6.76-1.29-16.46-.95-28.6,1.83-.27-7.5-3.74-11.7-3.74-11.7,1.37,11.62.18,24.07-7.86,32.91,9,10.1,11,44.22,9.77,59.12-7.87,5.72-22.53,8.15-30.6,3.27-9.61-5.8-16.86-10.48-28-5.47-3.35-3.66-5-8.84-5.33-13.81,4.19-4.12,9.73-7,15.16-9.29,8.54,7.13,14,6.88,14,6.88-4.71-3.93-9.66-8.23-11.88-14-8.83,2.92-17.32,6.38-24,13.27-15.33-7.91-35-13.05-53.18-11.86-2-11.33-14.44-16.07-15.72-34,4.89-17.83,50.54-29,60.37-27,4.78.93,14.88,4.51,25.14,9.51-16.08-4.59-30.52-3.37-44.88,3.88,3.5,1.89,9.2,6.91,9.2,6.91,8.55-1.7,25.47-1.29,33.41,7.4-4.76,6.63-20.6,7.37-32-1.68,1.86,9.89,11.26,12.53,18.61,13.92-3.06,1.57-6,1.55-11,1.44,5.72,7,30.22,4,44.52-1.88a15.63,15.63,0,0,1,3,11.43c9.44-5.86,10.67-16.09,10.47-22.15,11.14-5.1,12.72-20.56,6.56-30.07,0,0,1.18,6.18-1,11.4-45.43-28.49-58.41-33.57-101-17.37,1.9-19.23,46.72-22.1,50.87-26.12,4.31-4.17-1.32-21.08-11.92-28.73,23,2.85,46.08,13.09,64.55,24.21a49.73,49.73,0,0,0,19.12-2.1A179.41,179.41,0,0,1,814.61,203.92Zm-231-97.38c33-27.32,79.83-23.27,118.6-12.26,0,0-8-14.45-29.67-25.79,41.13-11.63,82.05,5.34,104.93,41.1,0,0-.45-9.09-13.09-24.23-5.12-6.13-7.91-13.87-13-20.09,31.74,1.27,57.75,32.79,50.54,64.22,11.53-4.53,15.76-17.16,16.53-28.86,35.89,30.84-14.4,94.39-53.44,64.5,8.92-8.58,9.29-22.86,4.93-24.14.27,4.2-3.72,7.83-8.52,8.77,6.42-8.64,10-38.22-12-48.87,0,0,6.26,18.82-1.81,24.72C747,85,716.62,75.1,697.89,79.34c0,0,13.58,14.45,15,27.24-48.52-26.07-102.25-14.24-110.45,3.17,6.64-1.89,15.4-.33,18.36,3.07-31.68,1.58-50.42,30.84-49.46,44.51,4.23-4.91,9.71-8.43,14-9.44-11.31,11.35-10.71,39.22-7,54.75-7.42-1.74-15,.28-21,8.05-2.89-26.36,3.74-57.44,19.47-77.58,0,0-6.82,2-18.41,21.8C559.66,136.15,569.26,118.64,583.63,106.54Zm-421,549.08c2.06-14.36,12.27-27.38,13.93-42.28-2.84-29,6.2-57.87,18.47-83.88q5.09-1.19,10.2-1.91c-6.31,14.44-26.71,64.3-14.51,78.72,5.83-29.16,13.42-55.19,36.47-79.95,31.6,1,62.73,13.34,88.25,32.39-31.62-11.41-74-6.09-93.57,27.92l.41.28c23.94-24.95,59.88-31.57,91.77-19.8,30.39,13.1,59.93,27.84,94.36,21.24-2.16,2.27-4.37,4.49-6.77,6.57l.25.43c20.5-10.57,33.92-30.67,50.3-46.29,5.77-5.9,14.47-8.86,20.93-14.24,13.25-11.34,22.12-6.61,36.78-.87a33.86,33.86,0,0,0-2.82-3.64A51.23,51.23,0,0,1,529,543.62a37,37,0,0,1-6.84-1.37c4.41,9.11,15,9.8,21.81,13.35,6.13,3,11.61,8.81,15.27,13.43-.39,5.63-13.66,0-16.13-.8-.11,1.52,4.89,5.67,6.73,6.29,8.89,3,10.76,3.85,17.78,9.12,9,8,8.07,13.79-8.57,8.46.51,8.29,13.43,9.6,20.07,14.93,4.42,2.49,7,10.25,8.57,12.4h-1.84c-12.28,1.92-15.19-2.15-31.14.61-10.64,2.13-20.34-10-18.88-14,1.19-3.16,9.77-4.23,12.37-5.2-7.36-22-27.94-14.72-28.31-31.29,8.13-1,12,2.06,15.94,1.62-.32-.83-5.85-10.41-12.36-12-11.72-3.91-38.09,4.23-43,12-15,23.95-35.37,44.44-65.42,60.65-6.08-6.94-8.68-17.36-7.82-28.21-5.64,3.48-7.81,10.85-9.11,16.93-12.81,5.13-129.47,25.69-175.24,7.52-18.79,17.13-42,22.39-50.82,22.13.51,11.71,13.91,19.91,22.07,20.2,12.36,21.61,38.87,36.69,51.61,39.74,30,7.19,101.6-1.27,116.58-18.85-32.55,5.86-73.28-4.34-63.8-7.81,51.25-18.79,92.44,4.19,122.38-7.81,8.65-3.47,14,9.44,40,9.76,20.81.26,28.61-5,35.89-10.06-.32,1.56-.62,3.14-.9,4.72-15.78,11.12-37.27,12.47-55.42,6.92-8.15-3.56-16.74-.08-24.51,2.6-8.13,2.72-17.39.46-25.81,3-45,12.53-88.82,34.93-136.85,28.5-28.32-3.8-49.38-24.61-66.91-45.52a36.79,36.79,0,0,0,1.91,6.05c-3.07,1.06-9.39.4-11-.44C173.22,679.11,165.45,665.85,162.64,655.62Zm611.12,433.31-51.33-79.08H700.16v79.08H570.94l-57.77-89.09H497.35v89.09H371.09l-12.92-45.51H281.35l-13.23,45.51H202l70.36-230.79h94.58l65.9,216.15V858.14h64.56V945h16.14L568,858.14H764.4c37.76,0,57.77,19.69,57.77,56.81V953c0,25.82-9.68,43.25-28.4,51.32L849,1088.93ZM884.53,732.45c-4.5,3.78-15,7.18-23.68,5a13.55,13.55,0,0,0,5.4,7.9c-5,23.13-41.29,51.22-63.64,57.08a125.18,125.18,0,0,1-48.38,3.06,38,38,0,0,0,1.48-11.47c41.62,5.2,60.78-8.77,89.31-41.16,3.26-4.92,6.56-14,7.39-19.44-4.54,6.13-16,12-25.87,14.18-8.93,2-58.56-11.56-75.28-17.72a273.84,273.84,0,0,0-19.9-59.41c7.54-5,30-11.52,67.81-11.15-14-7.08-50-8.89-73.95-1.36q-1.92-3.72-3.94-7.38c26.39-2.85,54-6.24,80.29-1.09,18.18,6.46,35.67,25.77,49.72,39,0,0-6.25-11.34-27.88-32.21,9.91-5.57,21-10.16,32.45-10.35a554.86,554.86,0,0,1,19.52,55.49l2,2.3C884.5,711.81,886.59,721.07,884.53,732.45Z"/><path d="M336,165.27a19.45,19.45,0,0,0-6-.6h0c-7.84.39-8.48,7.88-3.16,16.41C332.62,190.81,356.4,173.29,336,165.27Z"/><path d="M375,71.79c13.43,7.67,19-7.91,11.8-15.33C376.93,46.38,361.3,64,375,71.79Z"/><path d="M206.63,138.15c21-12.7,34,37.64,50,2.24,4.33-9.57,5.61-17.54,14.51-26.55,6.86-7-2.92-16.6-10.6-15.65s-11.32-.4-16.18-7.92c-3.37-5.21-16.11-7.53-23.63-6S203.7,91,199.6,99.35c-2.22,4.51-.42,9.46.25,13.72.78,4.89,4.61,8.9-3.06,13-2.66,1.42-3.8,5.5-2.14,8.54C196.24,137.46,203.8,139.86,206.63,138.15Z"/><path d="M267.15,90.28h0c9.93,4.63,21.29-3.74,32.13-4.7,5.41-.41,8.81-3.53,7.05-7.53-2.76-6.2-6.88-14.65-12.14-16.16-10.33-2.2-11.25,7-17.23,11.14-4.64,3.16-11.07,4-13.44,10.47C262.41,86.54,264.91,89.23,267.15,90.28Z"/><path d="M105.38,421h0c14.76-23.62-14-43.08-29.88-20.64-6.92,10-3.06,19.73,7,27.09C89.81,432.79,100,429.55,105.38,421Z"/><path d="M97.42,334.43c6.29,4.69,10,2.37,13.7.05,7.08-4.43,5-14.73-.21-17.76s-12.71,0-14.73,4.5C94.67,324.6,93.37,331.42,97.42,334.43Z"/><path d="M135.91,272.91h0c9.06-1.27,7.2-16,2-18.49a8.09,8.09,0,0,0-10.86,3.9C122.18,268.17,127.59,274.08,135.91,272.91Z"/><path d="M209.51,293.51c-3.36-1.13-10.08-3.4-12.53.88h0c-3.2,6.85,10.06,18.24,16.32,16.4,4.33-1.27,7.43-6.45,6.31-10C218.21,296.4,212.59,294.55,209.51,293.51Z"/><polygon points="296.85 988.54 342.36 988.54 319.76 909.46 296.85 988.54"/><polygon points="635.6 1072.77 635.6 869.69 570.3 972.73 635.6 1072.77"/><path d="M744.71,913H700.16v42h44.55c9.68,0,12.91-3.23,12.91-12.59V925.6C757.62,916.24,754.39,913,744.71,913Z"/><path d="M264.54,1168.49v51.13c0,16.19-8.29,24.21-25,24.21H210.28c-16.59,0-24.89-8-24.89-24.21v-51.13c0-16.19,8.3-24.21,24.89-24.21h29.24C256.25,1144.28,264.54,1152.3,264.54,1168.49Zm-31.55-5H216.94c-6.8,0-9.11,2.17-9.11,8.56v44.07c0,6.39,2.31,8.57,9.11,8.57H233c6.8,0,9.11-2.18,9.11-8.57V1172C242.1,1165.63,239.79,1163.46,233,1163.46Z"/><path d="M314.05,1164.82v21.35h40.39v19.17H314.05v37.13H291.61v-96.83h68.54v19.18Z"/><path d="M405.44,1164.82v21.35h40.39v19.17H405.44v37.13H383v-96.83h68.54v19.18Z"/><path d="M509.47,1207.38H496.83v35.09H474.39v-96.83h51.54c16.59,0,24.89,8,24.89,24.21v13.46c0,12.65-5.17,20.27-15.51,23l25.44,36.17H534.5Zm-12.64-19.17h22.44c6.8,0,9.11-2.18,9.11-8.57v-6.26c0-6.39-2.31-8.56-9.11-8.56H496.83Z"/><path d="M655.54,1168.49v51.13c0,16.19-8.3,24.21-25,24.21H601.28c-16.6,0-24.89-8-24.89-24.21v-51.13c0-16.19,8.29-24.21,24.89-24.21h29.24C647.24,1144.28,655.54,1152.3,655.54,1168.49Zm-31.55-5h-16c-6.8,0-9.11,2.17-9.11,8.56v44.07c0,6.39,2.31,8.57,9.11,8.57h16c6.8,0,9.11-2.18,9.11-8.57V1172C633.1,1165.63,630.79,1163.46,624,1163.46Z"/><path d="M737.82,1220.31H702.46l-6.94,22.16h-23l31.28-96.83h32.77l31.15,96.83h-23Zm-5.85-19-11.83-37.81-11.7,37.81Z"/><path d="M865.52,1169.85v48.42c0,16.18-8.29,24.2-24.89,24.2H789.09v-96.83h51.54C857.23,1145.64,865.52,1153.66,865.52,1169.85Zm-22.44,3.53c0-6.39-2.31-8.56-9.11-8.56H811.53v58.48H834c6.8,0,9.11-2.18,9.11-8.57Z"/></svg>